<svg xmlns="http://www.w3.org/2000/svg" viewBox="0 0 1000 1000">
  <g fill="#fff">
    <circle cx="350" cy="840" r="50"/>
    <circle cx="680" cy="840" r="50"/>
  </g>
  <g stroke-linecap="round" stroke-linejoin="round" stroke-width="50" stroke="#fff" fill="none">
    <path d="M140 250h80l130 420h370l110-340H270M350 670l-50 90h420"/>
  </g>
  <circle fill="red" cx="530" cy="380" r="210"/>
  <path fill="#fff" d="M626.8 244.7c1.05 1.05 3.75 3.15 6.15 4.65 3.45 2.4 4.05 3.75 4.05 9.75 0 6.45-.6 7.65-6.3 12.6-4.2 3.75-7.8 5.55-10.8 5.55-2.4 0-7.8 1.65-12 3.6-4.65 2.25-12.15 4.05-18.9 4.65-6.15.6-13.8 2.4-17.1 4.05-3.45 1.8-11.25 3.45-18.75 4.2-7.05.75-16.95 2.7-21.75 4.35-4.95 1.8-10.95 3.15-13.65 3.15-2.55 0-5.4.75-6.45 1.8-2.55 2.55-2.55 47.1.15 48.75.9.6 21.75 1.05 46.05 1.2h44.1l3.3 5.85 3.3 5.85-3.15 6.15c-3.9 7.5-11.7 15.15-17.55 17.1-2.25.9-8.25 1.2-13.35.75-7.05-.75-10.65-.15-16.2 2.25-3.9 1.65-13.2 3.75-20.55 4.65-10.35 1.2-14.7 2.55-19.2 5.55-6.45 4.5-6.9 6.9-3.3 16.95 1.2 3.6 2.85 14.25 3.45 23.7.75 9.45 2.1 18 3.15 18.9 2.7 2.85 25.8 1.5 34.95-1.95 4.65-1.95 14.7-3.75 25.05-4.65 9.45-.75 22.8-2.85 29.7-4.35 6.9-1.65 16.2-3 20.55-3 6.9 0 8.4.6 11.1 4.05 1.8 2.1 3.6 5.7 4.2 7.65 1.5 6-2.55 15.45-8.1 19.05-2.7 1.65-7.2 4.5-10.2 6.3-2.85 1.8-7.95 4.05-11.1 4.95-3.15.75-6.6 2.55-7.65 3.75-1.05 1.2-4.65 3-8.1 4.05-3.3.9-8.1 3.3-10.35 5.25-2.4 1.95-6.15 3.45-8.25 3.45-2.25 0-7.65 1.65-12 3.75-10.35 4.8-24.45 7.2-35.55 6.15-5.55-.6-13.95-.15-21.75 1.2-7.05 1.2-17.85 2.7-24.15 3.3-11.1.9-11.85.75-16.95-3.15-3-2.25-5.4-4.95-5.4-6 0-1.2-1.8-4.2-4.2-6.9-3.9-4.8-4.05-5.7-4.5-24.75-.45-19.65-.6-19.8-4.95-24-2.4-2.25-4.35-4.8-4.35-5.55s-1.35-3.15-3.15-5.25c-3-3.9-3-5.25-2.7-79.35.3-69.15 0-75.75-2.4-79.35-1.8-2.7-2.25-5.4-1.65-9 1.35-6.45 4.5-9.6 9.75-9.6 2.4 0 6.15-1.5 8.4-3.3 3.75-2.85 6.9-3.45 26.1-4.5 12-.75 28.05-2.55 35.4-4.2 7.5-1.5 21.75-3.3 31.5-3.75 9.9-.45 25.05-2.25 33.75-3.75 21.75-4.05 22.2-4.05 31.8-4.35 5.25 0 9.3.6 10.5 1.8z"/>
</svg>
