<svg version="1.0" xmlns="http://www.w3.org/2000/svg" viewBox="0 0 581 549">
  <circle cx="300" cy="300" r="220" fill="#3cb73c"/>
  <path fill="#fff" d="M142.94 198.94c-3.15.35-8.19 1.33-11.2 2.17-6.16 1.75-6.37 1.96-8.68 11.06-2.17 8.75-.7 15.19 4.83 20.72 3.29 3.29 6.58 4.9 11.83 5.88 4.34.77 7.56.49 18.06-1.54 3.85-.77 7.77-1.33 8.75-1.19 2.8.35 4.41 3.57 8.4 17.08 6.02 20.44 8.33 27.93 12.6 41.23 4.97 15.4 6.23 19.46 13.02 43.05 2.94 10.15 7.7 25.13 10.64 33.25 2.87 8.05 6.79 19.32 8.68 25.06 1.89 5.67 4.27 11.69 5.25 13.3 4.41 7 11.55 11.2 21.35 12.46 3.22.42 6.3.91 6.86 1.05.49.14-1.47 1.82-4.34 3.78-9.1 5.88-12.74 10.57-13.86 17.5-.7 4.34.49 10.85 2.66 14.84 2.45 4.55 8.4 10.01 13.3 12.32 3.5 1.61 4.97 1.89 10.71 1.89 7.77 0 12.39-1.54 17.64-5.74 9.52-7.77 11.97-19.11 6.51-30.66-2.03-4.2-7.35-10.08-11.06-12.04l-2.24-1.26 7-.42c3.85-.28 26.25-.63 49.7-.91l42.7-.49-3.08 1.47c-5.04 2.38-14.07 9.24-16.17 12.25-8.05 11.76-2.45 28.49 11.76 35.49 15.19 7.49 34.44-1.47 37.94-17.71 2.38-10.78-4.27-23.66-15.12-29.26l-4.13-2.1 7.91.14 7.91.14 2.1-2.31c3.71-4.13 2.24-10.92-2.8-12.81-3.99-1.54-36.4-2.03-85.82-1.19-61.04.98-67.62.63-71.96-4.2-.98-1.12-6.79-15.26-6.79-16.59 0-.14 28.77-.21 63.91-.14 98.91.21 107.59-.84 118.79-14.28 6.65-7.98 11.27-19.39 25.06-61.53l7-21c4.62-13.44 5.25-20.93 2.31-27.65-2.52-5.74-7.56-9.24-16.59-11.55-4.83-1.26-7.14-1.33-31.78-.91l-26.6.42v14.42l4.06.49c2.17.28 13.93.28 26.04 0 22.82-.49 27.65-.14 30.24 2.17 2.38 2.17 1.33 8.61-3.64 21.91-1.47 4.06-6.51 18.69-11.2 32.55-9.24 27.37-12.95 36.05-17.78 41.37-3.57 4.06-5.46 4.76-14.77 5.88-16.66 1.89-29.68 2.24-93.1 2.59l-67.2.35-3.99-12.11c-2.24-6.72-6.37-20.51-9.31-30.73-2.94-10.22-7.77-26.25-10.85-35.7-5.32-16.52-8.47-26.53-9.45-29.96l-.49-1.68 14.42.49 14.42.56v-15.12l-11.34.49c-6.3.28-13.72.63-16.45.84-4.55.42-5.11.28-5.46-.84-.28-.77-1.4-3.71-2.59-6.58s-3.29-9.38-4.76-14.35c-3.92-13.65-6.72-18.55-13.16-22.68-6.09-3.92-13.65-4.9-26.6-3.43zm18.69 14.63c2.17 1.19 5.67 5.6 5.67 7.07 0 .21-1.82.56-3.99.84-2.24.28-6.51 1.12-9.52 1.89-3.08.77-7.49 1.61-9.87 1.82-7.49.7-10.92-2.38-10.92-9.87v-3.92l13.02.35c11.62.28 13.23.42 15.61 1.82zm105.98 223.86c3.71 2.38 6.3 6.72 6.3 10.64 0 6.23-7.28 11.76-14.28 10.92-7.77-.91-13.23-6.37-13.79-13.65-.28-3.99-.21-4.2 1.96-5.74 3.5-2.52 8.4-4.13 12.67-4.2 3.08 0 4.48.42 7.14 2.03zm114.1 0c8.47 5.46 8.26 15.61-.49 20.02-4.62 2.31-8.26 2.24-13.09-.21-5.18-2.59-7.77-6.44-8.19-11.97l-.28-4.13 2.8-1.89c4.06-2.66 7.56-3.78 12.11-3.85 3.08 0 4.48.42 7.14 2.03z"/>
  <path fill="red" d="M265.347 163.808c-4.281.77-7.946 2.695-11.088 5.837-2.48 2.48-4.02 4.943-5.082 8.131-1.078 3.296-1.001-2.31-1.001 66.944s-.077 63.648 1.001 66.944c1.063 3.188 2.603 5.652 5.082 8.131 2.495 2.495 5.251 4.189 8.347 5.144 3.25 1-.154.939 48.325.939s45.076.062 48.325-.94c3.096-.954 5.852-2.648 8.347-5.143 4.112-4.096 6.083-8.901 6.083-14.784 0-4.466-1.078-8.039-3.496-11.689-2.54-3.819-6.53-6.806-10.98-8.223-3.188-1.017-1.032-.955-36.837-.955H289.91v-18.465l16.755-.061c16.432-.046 16.77-.046 18.172-.37 6.653-1.524 11.596-5.344 14.553-11.211 1.463-2.926 2.125-5.821 2.125-9.317s-.662-6.391-2.125-9.317c-2.957-5.867-7.9-9.687-14.553-11.211-1.401-.324-1.74-.324-18.172-.37l-16.755-.061v-18.465h32.463c35.805 0 33.634.062 36.837-.955 6.406-2.033 11.442-7.038 13.537-13.475.662-2.017.939-3.958.939-6.437 0-5.883-1.971-10.688-6.083-14.784-2.495-2.495-5.251-4.189-8.347-5.144-3.25-1 .17-.939-48.464-.924-37.576.016-44.398.047-45.445.231z"/>
</svg>