<svg xmlns="http://www.w3.org/2000/svg">
  <symbol viewBox="0 0 100 100" id="coins">
    <path fill="currentColor" d="M80.4 48.3c0-5.7-7.9-10.2-17.9-10.2-2.8 0-5.3.3-7.6 1v-7.8-.3V20.3c0-5.7-7.9-10.2-17.9-10.2-10.1 0-18 4.5-18 10.2V63c0 5.7 7.9 10.2 17.9 10.2 2.7 0 5.3-.3 7.6-.9v7.8c0 5.7 7.9 10.2 17.9 10.2s17.9-4.5 17.9-10.2V69.9v-.3-10.5-.3-10.5zm-56.7-21c.1.1.3.2.4.2.4.3.9.5 1.4.7l1.5.6c.2.1.4.1.5.2.4.1.7.2 1.1.4.2.1.4.1.7.2.4.1.7.2 1.1.3.2.1.5.1.7.1.4.1.8.1 1.2.2.2 0 .5.1.7.1.4.1.9.1 1.3.1.2 0 .4 0 .6.1.7 0 1.3.1 2 .1s1.4 0 2-.1c.2 0 .4 0 .6-.1.4 0 .9-.1 1.3-.1.2 0 .5-.1.7-.1.4-.1.8-.1 1.2-.2.2 0 .5-.1.7-.1.4-.1.7-.2 1.1-.3.2-.1.4-.1.7-.2.4-.1.7-.2 1.1-.4.2-.1.4-.1.5-.2l1.5-.6c.5-.2.9-.5 1.4-.7.1-.1.3-.2.4-.2l.9-.6s.1-.1.2-.1v3.9c0 3.1-5.8 6.5-14.2 6.5s-14.2-3.4-14.2-6.5v-3.9s.1.1.2.1c.1.2.4.4.7.6zm30.5 30c.2.1.4.1.7.2.4.1.7.2 1.1.3.2.1.5.1.7.1.4.1.8.1 1.2.2.2 0 .5.1.7.1.4.1.9.1 1.3.1.2 0 .4 0 .6.1.7 0 1.3.1 2 .1s1.4 0 2-.1c.2 0 .4 0 .6-.1.4 0 .9-.1 1.3-.1.2 0 .5-.1.7-.1.4-.1.8-.1 1.2-.2.2 0 .5-.1.7-.1.4-.1.7-.2 1.1-.3.2-.1.4-.1.7-.2.4-.1.7-.2 1.1-.4.2-.1.4-.1.5-.2l1.5-.6c.5-.2.9-.5 1.4-.7.1-.1.3-.2.4-.2l.9-.6s.1-.1.2-.1v3.9c0 3.1-5.8 6.5-14.2 6.5-3.6 0-6.8-.6-9.2-1.6 0 0-.1 0-.1-.1-2.7-1.1-4.5-2.7-4.9-4.2v-.1-4.5c.2.1.3.2.5.4h.1c.1 0 .1.1.2.1.2.1.3.2.5.3.2.1.3.2.5.3h.1c.1 0 .1.1.2.1.4.2.8.4 1.3.6.1 0 .2.1.3.1.2.1.5.2.7.3.2.1.3.1.5.2.1.3.5.4.9.5zm-9.6.3c-2.3.7-4.9 1.1-7.6 1.1-8.4 0-14.2-3.4-14.2-6.5v-3.9c3.3 2.4 8.4 3.9 14.2 3.9 2.7 0 5.3-.3 7.6-.9v6.3zm32.1 11.7c0 3.1-5.8 6.5-14.2 6.5-8.1 0-13.9-3.2-14.2-6.2v-4.2c.8.6 1.7 1.1 2.7 1.6.2.1.3.2.5.2.1 0 .2.1.3.1 3 1.2 6.6 2 10.7 2 5.9 0 11-1.5 14.2-3.9v3.9zm-30.8-25c-.2.2-.3.5-.5.7-.1.1-.1.2-.2.4s-.2.4-.2.5c-.1.2-.1.4-.2.5 0 .1-.1.1-.1.2-2.3.8-5 1.2-7.8 1.2-8.4 0-14.2-3.4-14.2-6.5v-3.9c3.3 2.4 8.4 3.9 14.2 3.9s11-1.5 14.2-3.9v2.8c-2.3 1-4.1 2.4-5.2 3.9.1.2 0 .2 0 .2zm30.8 4c0 3.1-5.8 6.5-14.2 6.5-3.9 0-7.2-.7-9.6-1.8-.3-.1-.6-.3-.9-.4 0 0-.1 0-.1-.1h-.1l-.4-.2c-.2-.2-.3-.3-.4-.3 0 0-.1 0-.1-.1h-.1c-.2-.1-.4-.3-.6-.5h-.1l-.3-.3c-.1-.1-.2-.2-.3-.2l-.3-.3c-.1-.1-.2-.2-.2-.3-.1-.1-.1-.2-.2-.3-.1-.1-.1-.2-.2-.3-.2-.4-.3-.7-.3-1.1v-.2c0-.2 0-.4.1-.7.5-1.6 2.4-3.1 5.3-4.2h.1c2.4-.9 5.3-1.5 8.8-1.5 8.3-.2 14.1 3.2 14.1 6.3zM36.9 13.8c8.4 0 14.2 3.4 14.2 6.5s-5.8 6.5-14.2 6.5-14.2-3.4-14.2-6.5c0-3 5.8-6.5 14.2-6.5zM22.7 63v-3.9C26 61.5 31.1 63 36.9 63c2.7 0 5.3-.3 7.6-.9v6.4c-2.3.7-4.9 1.1-7.6 1.1-8.4-.1-14.2-3.5-14.2-6.6zm54 17.1c0 3.1-5.8 6.5-14.2 6.5s-14.2-3.4-14.2-6.5v-3.9c3.3 2.4 8.4 3.9 14.2 3.9s11-1.5 14.2-3.9v3.9z"/>
  </symbol>


  <!-- ICONS -->
  <symbol viewBox="0 0 16 16" id="camera" fill="currentColor">
    <path d="M14.661 2.968H12.2a.95.95 0 0 0-.947-.947h-6.5a.95.95 0 0 0-.947.947H1.333A1.337 1.337 0 0 0 0 4.3v8.1a1.337 1.337 0 0 0 1.333 1.333h13.328a1.337 1.337 0 0 0 1.333-1.333V4.3a1.337 1.337 0 0 0-1.333-1.332zM7.994 12.2a4.2 4.2 0 1 1 4.2-4.2 4.2 4.2 0 0 1-4.2 4.2z"/>
    <path d="M7.994 4.3a3.7 3.7 0 1 0 3.7 3.7 3.7 3.7 0 0 0-3.7-3.7zm0 6.9a3.2 3.2 0 1 1 3.2-3.2 3.2 3.2 0 0 1-3.2 3.2z"/>
    <path d="M5.735 6.258h.651v3.484h-.651zm.971 0h.326v3.484h-.326zm.645 0h.651v3.484h-.651zm2.263 0h.651v3.484h-.651zm-1.291 0h.326v3.484h-.326zm.645 0h.326v3.484h-.326z"/>
  </symbol>

  <symbol viewBox="0 0 24 24" id="menu">
    <path d="M0 0h24v24H0z" fill="none"/>
    <path d="M3 18h18v-2H3v2zm0-5h18v-2H3v2zm0-7v2h18V6H3z" fill="currentColor"/>
  </symbol>

  <symbol viewBox="0 0 1000 1000" id="list">
    <path fill="currentColor" d="M783.8,990H216.2c-34.8,0-63.1-28.2-63.1-62.9V167.3c0-34.7,28.2-62.9,63.1-62.9h157.6V170H247.8c-17.4,0-31.5,14.1-31.5,31.5v694.2c0,17.4,14.1,31.5,31.5,31.5h504.5c17.4,0,31.5-14,31.5-31.5V201.4c0-17.4-14.1-31.5-31.5-31.5H626.1v-65.5h157.6c34.8,0,63.1,28.2,63.1,62.9v759.7C846.8,961.8,818.6,990,783.8,990z M373.9,358.7h346.8v31.5H373.9V358.7z M373.9,453.1h346.8v31.5H373.9V453.1z M373.9,547.6h346.8V579H373.9V547.6z M373.9,642h346.8v31.5H373.9V642z M720.7,862.2H373.9v-31.4h346.8V862.2z M373.9,736.4h346.8v31.5H373.9V736.4z M279.3,358.1h31.5v31.5h-31.5V358.1z M279.3,452.5h31.5V484h-31.5V452.5z M279.3,546.9h31.5v31.5h-31.5V546.9z M279.3,641.3h31.5v31.5h-31.5V641.3z M310.8,861.6h-31.5v-31.5h31.5V861.6z M279.3,735.7h31.5v31.5h-31.5V735.7z M689.2,203.4c17.4,0,31.5,14.1,31.5,31.5c0,17.4,0,60.9,0,60.9H279.3c0,0,0-43.6,0-60.9c0-17.4,14.1-31.5,31.5-31.5h94.6c0,0,0.4-44.7,0.4-95.9c0-53.1,41-97.5,94.2-97.5c53.2,0,95.6,46.7,95.6,97.8c0,55.1-1,95.6-1,95.6H689.2z M500,104.4c-17.4,0-31.5,14.1-31.5,31.4c0,17.4,14.1,31.5,31.5,31.5s31.5-14.1,31.5-31.5C531.5,118.5,517.4,104.4,500,104.4z"/>
  </symbol>

  <symbol viewBox="40 40 400 400" id="home">
    <path fill="currentColor" d="M233.333,160c-4.703,4.703-69.124,65.807-106.666,101.395v125.272h80v-100 h66.666v100h80V261.189C314.309,224.083,246.667,160,246.667,160S240,153.333,233.333,160z M353.333,120
      c0-7.363-5.97-13.333-13.333-13.333h-26.667c-7.363,0-13.333,5.97-13.333,13.333v11.562 c16.895,16.159,35.998,34.396,53.333,50.932V120z M406.667,246.667c0,0-140-133.334-153.334-146.667
      c-13.333-13.333-26.666,0-26.666,0S80,240,73.333,246.667c-6.666,6.666,0,13.333,0,13.333s6.667,6.667,13.334,13.333 c6.666,6.667,13.333,0,13.333,0s126.667-120,133.333-126.666c6.667-6.667,13.334,0,13.334,0s126.666,120,133.333,126.666
      c6.667,6.667,13.333,0,13.333,0s0,0,13.334-13.333C413.333,253.333,406.667,246.667,406.667,246.667z"/>
  </symbol>

  <symbol viewBox="0 0 447 447" id="bell" fill="currentColor">
    <path d="M326.39 233.237v-30.34c0-48.263-33.197-88.766-78-99.938V72.124c0-13.807-11.193-25-25-25s-25 11.193-25 25v30.834c-44.803 11.172-78 51.676-78 99.938v30.34a122.31 122.31 0 0 1-35.822 86.483 35.252 35.252 0 0 0 24.926 60.178h62.148c0 28.579 23.168 51.747 51.747 51.747s51.747-23.168 51.747-51.747h62.148a35.252 35.252 0 0 0 24.926-60.178 122.307 122.307 0 0 1-35.82-86.482zm-103 168.407c-11.992 0-21.747-9.756-21.747-21.747h43.495c-.001 11.992-9.757 21.747-21.748 21.747zm118.747-54.989a5.237 5.237 0 0 1-4.852 3.242H109.494a5.236 5.236 0 0 1-4.852-3.241 5.236 5.236 0 0 1 1.138-5.723c28.767-28.766 44.609-67.013 44.609-107.696v-30.34c0-40.252 32.748-73 73-73s73 32.748 73 73v30.34c0 40.682 15.842 78.929 44.609 107.696a5.233 5.233 0 0 1 1.139 5.722z"/><path d="M86.146 233.065c7.842-2.671 12.034-11.193 9.362-19.035-16.559-48.616 9.521-101.639 58.137-118.199 7.842-2.671 12.034-11.193 9.362-19.035-2.671-7.842-11.193-12.036-19.035-9.362-64.274 21.892-98.754 91.995-76.862 156.269 2.125 6.239 7.954 10.167 14.197 10.167 1.605 0 3.237-.259 4.839-.805z"/><path d="M130.078 44.416c7.842-2.671 12.034-11.193 9.363-19.035-2.672-7.842-11.194-12.036-19.036-9.362C27.665 47.606-22.086 148.755 9.503 241.496c2.125 6.239 7.954 10.167 14.197 10.167a14.98 14.98 0 0 0 4.838-.805c7.842-2.671 12.034-11.193 9.362-19.035-26.254-77.081 15.096-161.152 92.178-187.407zM302.806 67.434c-7.843-2.673-16.364 1.521-19.035 9.362-2.671 7.842 1.521 16.364 9.362 19.035 48.616 16.56 74.696 69.583 58.138 118.199-2.671 7.842 1.52 16.364 9.362 19.035a14.98 14.98 0 0 0 4.838.805c6.243 0 12.072-3.929 14.197-10.167 21.893-64.274-12.588-134.377-76.862-156.269z"/><path d="M428.523 105.788c-20.947-42.587-57.224-74.468-102.149-89.77-7.843-2.674-16.364 1.52-19.035 9.362-2.671 7.842 1.521 16.364 9.362 19.035 37.34 12.719 67.492 39.216 84.902 74.613 17.41 35.397 19.994 75.455 7.275 112.794-2.671 7.842 1.521 16.364 9.362 19.035a14.98 14.98 0 0 0 4.838.805c6.243 0 12.072-3.929 14.197-10.167 15.303-44.924 12.195-93.12-8.752-135.707z"/>
  </symbol>

  <symbol viewBox="0 0 1000 1000" fill="currentColor" id="search-history">
    <path d="M914.4,474.4c2.2-112.8-39.8-226.2-126.8-311.4C620.2-0.8,351.7,2.1,187.9,169.4C48.7,311.6,30.5,526.6,130.8,688.6L36.6,790.4c-37.5,40.4-35,103.6,5.4,141c40.4,37.4,103.6,35,141-5.4l89.8-97c85.9,51.7,186,70.4,282,55.9c45.3,32.9,100.7,52.5,160.9,52.5c151.5,0,274.3-122.8,274.3-274.3C990,589.9,961.1,523.6,914.4,474.4z M264.1,697.6c-127.9-125.2-130.1-330.5-4.8-458.5c125.2-127.9,330.6-130.1,458.5-4.8c49.2,48.2,79.6,108.3,91.5,171.2c-29.3-10.7-60.7-16.8-93.6-16.8c-151.5,0-274.3,122.9-274.3,274.3c0,45.5,11.3,88.4,30.9,126.2C396.8,785,322.4,754.7,264.1,697.6z M529.9,864.6c0.2,0.1,0.3,0.2,0.5,0.4C530.3,864.9,530.1,864.7,529.9,864.6z M715.7,887.6c-123.9,0-224.5-100.5-224.5-224.5s100.5-224.5,224.5-224.5c123.9,0,224.5,100.5,224.5,224.5S839.6,887.6,715.7,887.6z"/>
    <path d="M805.2,691h-86.8V566.3c0-13.8-11.2-24.9-24.9-24.9c-13.8,0-24.9,11.2-24.9,24.9v149.6c0,13.8,11.2,24.9,24.9,24.9h111.7c13.8,0,24.9-11.2,24.9-24.9C830.2,702.1,819,691,805.2,691z"/>
  </symbol>

  <symbol viewBox="0 0 612 612" id="star">
    <path fill="currentColor" d="M610.95 238.72a24.428 24.428 0 0 0-18.454-16.848l-188.994-37.845-75.365-169.641C324.255 5.666 315.535.025 305.973.025c-9.562 0-18.263 5.679-22.183 14.419l-75.327 169.604-189.051 37.844c-8.739 1.798-15.758 8.223-18.358 16.81-2.62 8.472-.268 17.746 6.081 24.171L138.798 394.44l-36.793 188.402c-1.836 9.197.535 18.109 7.649 23.826 4.246 3.348 9.696 5.184 15.356 5.184 3.404 0 6.731-.707 9.753-2.084l171.21-75.959 171.498 76.055c2.906 1.395 6.138 2.104 9.638 2.104 5.45 0 10.805-1.855 15.03-5.221 7.152-5.68 9.562-14.859 7.822-23.904l-36.889-188.441L604.85 262.834c6.349-6.329 8.701-15.585 6.1-24.114zm-178.4 115.103c-13.521 13.5-19.448 32.854-15.758 51.613l24.573 125.639-112.119-49.721a57.3 57.3 0 0 0-46.527 0l-112.177 49.76 24.574-125.697a57.36 57.36 0 0 0-15.758-51.574L91.43 265.971l128.259-25.664a57.352 57.352 0 0 0 41.172-32.968l45.111-101.525 45.112 101.544a57.37 57.37 0 0 0 41.153 32.969l128.298 25.682-87.985 87.814z"/>
  </symbol>

  <!-- ARROWS -->
  <symbol viewBox="0 0 512 512" id="arrow-chevron-left">
    <path d="M213.7 256L380.9 81.9c4.2-4.3 4.1-11.4-.2-15.8l-29.9-30.6c-4.3-4.4-11.3-4.5-15.5-.2L131.1 247.9c-2.2 2.2-3.2 5.2-3 8.1-.1 3 .9 5.9 3 8.1l204.2 212.7c4.2 4.3 11.2 4.2 15.5-.2l29.9-30.6c4.3-4.4 4.4-11.5.2-15.8L213.7 256z"/>
  </symbol>
  <symbol viewBox="0 0 512 512" id="arrow-chevron-right">
    <path d="M298.3 256L131.1 81.9c-4.2-4.3-4.1-11.4.2-15.8l29.9-30.6c4.3-4.4 11.3-4.5 15.5-.2L380.9 248c2.2 2.2 3.2 5.2 3 8.1.1 3-.9 5.9-3 8.1L176.7 476.8c-4.2 4.3-11.2 4.2-15.5-.2L131.3 446c-4.3-4.4-4.4-11.5-.2-15.8L298.3 256z"/>
  </symbol>

  <!-- EXPAND/COLLAPSE ARROWS -->
  <symbol viewBox="0 0 24 24" id="arrow-expand">
    <polyline fill="none" points="21,8.5 12,17.5 3,8.5" stroke="currentColor" stroke-width="2"/>
  </symbol>

  <!-- LOGO -->
  <symbol viewBox="0 0 1000 1000" id="logo-E-letter">
    <path fill="#fff" d="M626.8 244.7c1.05 1.05 3.75 3.15 6.15 4.65 3.45 2.4 4.05 3.75 4.05 9.75 0 6.45-.6 7.65-6.3 12.6-4.2 3.75-7.8 5.55-10.8 5.55-2.4 0-7.8 1.65-12 3.6-4.65 2.25-12.15 4.05-18.9 4.65-6.15.6-13.8 2.4-17.1 4.05-3.45 1.8-11.25 3.45-18.75 4.2-7.05.75-16.95 2.7-21.75 4.35-4.95 1.8-10.95 3.15-13.65 3.15-2.55 0-5.4.75-6.45 1.8-2.55 2.55-2.55 47.1.15 48.75.9.6 21.75 1.05 46.05 1.2h44.1l3.3 5.85 3.3 5.85-3.15 6.15c-3.9 7.5-11.7 15.15-17.55 17.1-2.25.9-8.25 1.2-13.35.75-7.05-.75-10.65-.15-16.2 2.25-3.9 1.65-13.2 3.75-20.55 4.65-10.35 1.2-14.7 2.55-19.2 5.55-6.45 4.5-6.9 6.9-3.3 16.95 1.2 3.6 2.85 14.25 3.45 23.7.75 9.45 2.1 18 3.15 18.9 2.7 2.85 25.8 1.5 34.95-1.95 4.65-1.95 14.7-3.75 25.05-4.65 9.45-.75 22.8-2.85 29.7-4.35 6.9-1.65 16.2-3 20.55-3 6.9 0 8.4.6 11.1 4.05 1.8 2.1 3.6 5.7 4.2 7.65 1.5 6-2.55 15.45-8.1 19.05-2.7 1.65-7.2 4.5-10.2 6.3-2.85 1.8-7.95 4.05-11.1 4.95-3.15.75-6.6 2.55-7.65 3.75-1.05 1.2-4.65 3-8.1 4.05-3.3.9-8.1 3.3-10.35 5.25-2.4 1.95-6.15 3.45-8.25 3.45-2.25 0-7.65 1.65-12 3.75-10.35 4.8-24.45 7.2-35.55 6.15-5.55-.6-13.95-.15-21.75 1.2-7.05 1.2-17.85 2.7-24.15 3.3-11.1.9-11.85.75-16.95-3.15-3-2.25-5.4-4.95-5.4-6 0-1.2-1.8-4.2-4.2-6.9-3.9-4.8-4.05-5.7-4.5-24.75-.45-19.65-.6-19.8-4.95-24-2.4-2.25-4.35-4.8-4.35-5.55s-1.35-3.15-3.15-5.25c-3-3.9-3-5.25-2.7-79.35.3-69.15 0-75.75-2.4-79.35-1.8-2.7-2.25-5.4-1.65-9 1.35-6.45 4.5-9.6 9.75-9.6 2.4 0 6.15-1.5 8.4-3.3 3.75-2.85 6.9-3.45 26.1-4.5 12-.75 28.05-2.55 35.4-4.2 7.5-1.5 21.75-3.3 31.5-3.75 9.9-.45 25.05-2.25 33.75-3.75 21.75-4.05 22.2-4.05 31.8-4.35 5.25 0 9.3.6 10.5 1.8z"/>
  </symbol>

  <symbol viewBox="0 0 1000 1000" id="logo-wo-circle">
    <g fill="#fff">
      <circle cx="350" cy="840" r="50"/>
      <circle cx="680" cy="840" r="50"/>
    </g>
    <g stroke-linecap="round" stroke-linejoin="round" stroke-width="50" stroke="#fff" fill="none">
      <path d="M140 250h80l130 420h370l110-340H270M350 670l-50 90h420"/>
    </g>
    <circle fill="red" cx="530" cy="380" r="210"/>
    <path fill="#fff" d="M626.8 244.7c1.05 1.05 3.75 3.15 6.15 4.65 3.45 2.4 4.05 3.75 4.05 9.75 0 6.45-.6 7.65-6.3 12.6-4.2 3.75-7.8 5.55-10.8 5.55-2.4 0-7.8 1.65-12 3.6-4.65 2.25-12.15 4.05-18.9 4.65-6.15.6-13.8 2.4-17.1 4.05-3.45 1.8-11.25 3.45-18.75 4.2-7.05.75-16.95 2.7-21.75 4.35-4.95 1.8-10.95 3.15-13.65 3.15-2.55 0-5.4.75-6.45 1.8-2.55 2.55-2.55 47.1.15 48.75.9.6 21.75 1.05 46.05 1.2h44.1l3.3 5.85 3.3 5.85-3.15 6.15c-3.9 7.5-11.7 15.15-17.55 17.1-2.25.9-8.25 1.2-13.35.75-7.05-.75-10.65-.15-16.2 2.25-3.9 1.65-13.2 3.75-20.55 4.65-10.35 1.2-14.7 2.55-19.2 5.55-6.45 4.5-6.9 6.9-3.3 16.95 1.2 3.6 2.85 14.25 3.45 23.7.75 9.45 2.1 18 3.15 18.9 2.7 2.85 25.8 1.5 34.95-1.95 4.65-1.95 14.7-3.75 25.05-4.65 9.45-.75 22.8-2.85 29.7-4.35 6.9-1.65 16.2-3 20.55-3 6.9 0 8.4.6 11.1 4.05 1.8 2.1 3.6 5.7 4.2 7.65 1.5 6-2.55 15.45-8.1 19.05-2.7 1.65-7.2 4.5-10.2 6.3-2.85 1.8-7.95 4.05-11.1 4.95-3.15.75-6.6 2.55-7.65 3.75-1.05 1.2-4.65 3-8.1 4.05-3.3.9-8.1 3.3-10.35 5.25-2.4 1.95-6.15 3.45-8.25 3.45-2.25 0-7.65 1.65-12 3.75-10.35 4.8-24.45 7.2-35.55 6.15-5.55-.6-13.95-.15-21.75 1.2-7.05 1.2-17.85 2.7-24.15 3.3-11.1.9-11.85.75-16.95-3.15-3-2.25-5.4-4.95-5.4-6 0-1.2-1.8-4.2-4.2-6.9-3.9-4.8-4.05-5.7-4.5-24.75-.45-19.65-.6-19.8-4.95-24-2.4-2.25-4.35-4.8-4.35-5.55s-1.35-3.15-3.15-5.25c-3-3.9-3-5.25-2.7-79.35.3-69.15 0-75.75-2.4-79.35-1.8-2.7-2.25-5.4-1.65-9 1.35-6.45 4.5-9.6 9.75-9.6 2.4 0 6.15-1.5 8.4-3.3 3.75-2.85 6.9-3.45 26.1-4.5 12-.75 28.05-2.55 35.4-4.2 7.5-1.5 21.75-3.3 31.5-3.75 9.9-.45 25.05-2.25 33.75-3.75 21.75-4.05 22.2-4.05 31.8-4.35 5.25 0 9.3.6 10.5 1.8z"/>
  </symbol>

  <!-- PALM OIL -->
  <symbol viewBox="0 0 100 100" id="palmtree">
    <path d="M82.248 32.5087c-4.7175-13.161-21.8835-9.729-21.8835-9.729C49.9208 4.4686 29.892 11.622 29.892 11.622c15.021 3.5768 19.8863 14.0205 19.8863 14.0205-28.0373-8.154-31.329 17.0228-31.329 17.0228 11.9932-8.364 22.9454-6.9098 27.3742-5.793l-1.1963 1.0702s-18.309 10.587-24.7462 41.4848c0 0 .7882 3.1335 5.688 3.2835 4.896.1492 4.896-2.5673 4.896-2.5673s7.1505-29.6137 18.882-40.056L50.2687 39c8.8988 7.3005 5.1863 27.552 5.1863 27.552 17.5508-9.7275 6.1943-34.3755 6.1943-34.3755C79.224 35.4218 80.673 54.108 80.673 54.108s6.2978-8.4412 1.575-21.5992z"/>
    <path d="M73.6095 82.2593c4.5518 0 8.2425-3.6893 8.2425-8.2395 0-4.5525-8.2425-13.32-8.2425-19.0545h-.2858c0 5.7345-8.2402 14.502-8.2402 19.0545 0 4.5502 3.6908 8.2395 8.2402 8.2395h.2858z"/>
  </symbol>

  <symbol viewBox="0 0 100 100" id="palmoil">
    <use href="#palmtree" fill="none" stroke="currentColor" stroke-width="4" />
  </symbol>
  <symbol viewBox="0 0 100 100" id="badge-palmoil">
    <circle cx="50" cy="50" r="47" stroke-width="5" fill="none" stroke="currentColor"/>
    <use href="#palmtree" fill="currentColor"/>
  </symbol>

  <!-- GF SIRUP -->
  <symbol viewBox="0 0 100 100" id="bottle">
    <path d="M43.1197 16.9116l.329.2592s.362.6707.1563 2.057c-.2057 1.3864-.362 2.2628-.5678 3.139-.0986.42-.403 1.4068-.7242 2.37-.345 1.0242-.708 2.016-.868 2.254-.3084.465-.5634 1.0286-.5634 1.4935 0 .465.358 1.905.4114 2.16.0493.255.0493.979-.107 1.234-.0333.058-.239.2432-.551.51-1.1066.9546-3.5053 2.8926-3.8674 3.2955-.465.5143-3.6533 3.8055-3.962 4.472-.3084.6705-2.4683 4.4267-2.6204 5.1432-.1564.7242-1.547 4.8374-1.547 5.8667 0 1.0285-.358 3.3898-.358 4.8824 0 1.4953.2058 3.7027.3087 4.6292.1027.9257.7198 6.2203 1.234 7.9195s.8722 3.8548 1.0286 4.374c.1564.51.8228 2.8255.8228 2.8255s-.3085.7692 0 1.592c.3085.8237 1.4892 1.853 1.4892 1.853l1.44 3.9083s-.0987.8237.259 1.904c.358 1.082 1.3372 2.211 1.905 2.4166.5644.205 1.593.823 2.4684.93.872.0986 3.9253.4607 4.884.5304.959.0663 5.7606.136 5.7606.136s10.4907.2057 12.96-.8237c2.4683-1.0276 3.3464-1.6464 3.757-2.5185.4105-.8747.3586-1.4926.3586-1.4926l1.4926-5.2947s.4114-.2602.873-1.3414c.4598-1.0786.3068-1.3863.4598-2.057.1564-.6664 1.0812-2.2108 1.5972-6.4277.5133-4.2135.8712-12.3395.8712-13.8823 0-1.542-.5117-5.2445-.974-6.686-.1573-.4778-.544-1.4357-1.038-2.567 0 0-2.4233-5.2505-3.179-6.279-1.132-1.5428-3.189-3.6533-4.0128-4.5747-.6706-.7574-2.5968-2.0162-3.5428-2.658-.2176-.148-.3816-.2635-.4692-.329-.4607-.3578-.617-.617-.617-1.127 0-.5185.2047-1.2878 1.1304-1.905.465-.3127 1.0242-.6748 1.536-1.1108.5014-.4276.962-.9214 1.2418-1.5096.374-.7803.8797-1.649.9027-2.708.012-.55-.1062-1.151-.441-1.8183-.3486-.6995-.6988-1.246-1.1085-1.6422-.5984-.5787-1.1696-.8448-1.1696-.8448l-2.1004 2.2202c1.7263.919 1.5614 1.9686 1.5784 2.085.1496.981-.3077 1.5343-.3748 1.649-.459.7795-1.6524.4863-1.915.3868-.334-.13-1.0966-2.409-1.259-3.139-.0756-.34-.027-.9707.777-1.0778 1.0106-.1343 1.2886.158 1.2886.158-.006-.0586 2.005-2.2822 2.005-2.2822s-1.127-.5593-1.1686-.5712c-1.395-.3986-2.851-.815-3.1365-1.212l-.511-.72.511-.3086-.0493-1.5963s.3068-.0492.362-.51c.0494-.4648 0-3.9617 0-3.9617L56.311 8.84s-.3128-.6664-.5678-.7735c-.256-.0986-4.4778-.4607-5.8625-.4114-1.3863.0536-5.707.2593-6.324.5186-.617.255-.8228.617-.8228 1.2342s-.362 4.0613 0 4.987l.358.9256-.103 1.4934"/>
  </symbol>
  <symbol viewBox="0 0 100 100" id="gf-sirup">
    <use href="#bottle" fill="none" stroke="currentColor" stroke-width="4" />
  </symbol>
  <symbol viewBox="0 0 100 100" id="badge-gf-sirup">
    <circle cx="50" cy="50" r="47" stroke-width="5" fill="none" stroke="currentColor"/>
    <use href="#bottle" fill="currentColor"/>
  </symbol>

  <!-- ALLERGENS -->
  <symbol viewBox="0 0 624 624" id="allergens-eggs">
    <g fill="currentColor">
      <path d="M269 140.5c-14 2-21.8 3.8-33.6 7.8-19.8 6.8-27.9 12.2-45.1 29.9-18.9 19.7-26.2 26.5-32.3 30.7-7.7 5.2-16.7 10.1-18.6 10.1-.9 0-5.9 2-11.1 4.5-5.2 2.5-12.2 5.4-15.6 6.6-7 2.2-10.9 4.2-22.8 11.3-34.5 20.7-53.2 46.6-59.4 82.3-1.3 7.5-1.3 10.5-.4 16.5 2.4 15.3 8.7 28.8 18.4 39.6C56 388 63.2 393.4 76 400.5c5.8 3.1 11 6 11.5 6.4.6.4 3.7 1.5 7 2.5s7.4 2.2 9 2.8c7.7 2.7 23 3.8 63.5 4.7 23.4.6 47.5 1.5 53.5 2.1 31.5 3.1 46.7 5.5 52.4 8.4 1.4.8 6.2 2.3 10.6 3.4 9.2 2.4 27.9 8.9 54.7 19.1 27.6 10.5 48.1 15.6 72.7 18.1 55.2 5.5 106.8-11.3 135-44.1 28.8-33.3 39.5-75.4 28.5-111.9-6.1-20-16.4-33.5-35.8-46.9-8.7-6-34.6-19.1-47.6-24.1-13.2-5.1-20.8-8.8-30-14.6-4.7-3-8.9-5.4-9.3-5.4-3.2 0-16.6-11.7-36.2-31.5-14.3-14.4-25.5-24.7-29.5-27.4-14.6-9.5-32.9-16.5-52.3-20.2-14.9-2.8-49.2-3.5-64.7-1.4zm40.5 17.4c15.4 1.3 25.5 3.6 36.5 8.3 20.8 8.8 36.8 20.6 62 45.6 18.1 18 33.9 30.2 41.2 31.7 1.8.4 5 1.8 7 3.1 2.1 1.3 4.4 2.4 5.1 2.4.8 0 2.9 1 4.8 2.3 1.9 1.2 7 3.8 11.4 5.6 29.3 12.4 41.3 18.8 53.3 28.5 24.4 19.6 29.1 43.7 16.7 85.3-6.6 21.7-14.3 35.1-27.6 47.8-9 8.6-17.3 14.1-30.5 20.5-19.8 9.6-32.8 12.4-55.9 12.2-30.3-.2-54.4-5.7-95-21.7-36.2-14.2-59.2-21.2-79.1-23.9-6.1-.9-11.7-1.8-12.5-2.1-.8-.2-8.8-1.4-17.9-2.6-12.8-1.6-25.6-2.3-57-2.9-44.8-.9-57.5-2.1-72.2-7-17.5-5.9-28-13.1-35.5-24.3-13-19.6-13.1-43.3-.2-69 4.3-8.8 7.8-13.7 15.3-21.5 14-14.6 31.7-25 65.1-38.2 22.8-9 25.6-10.2 32.9-15 6.8-4.5 14.3-11.9 32-31.4 19.9-22 42.4-30.8 87.6-34.4.8-.1 6.5.2 12.5.7z"/>
      <path d="M272.5 197.1c-15.7 2.1-33.4 8.6-45.2 16.7-10 6.9-19.3 18.1-23.6 28.4-5.3 12.7-6.1 33.4-1.8 45.8 10.4 29.7 47.6 52 95.1 56.9 14.2 1.5 46.2 2.1 57 1.2 12.8-1.2 19-3.1 32.5-10.3 8.2-4.3 17.5-16 20.5-25.7 1.9-5.8 2.1-8.5 1.7-18.2-.2-6.3-.9-14.1-1.5-17.4-1.6-8.5-6.6-20.8-11.7-29-4.9-7.9-17.1-20.2-26-26.2-13.5-9.1-34.5-17.4-52.5-20.8-10.3-2-34.9-2.7-44.5-1.4zm44.6 23.3c22.3 3.8 32.8 7.5 43.6 15.7 18.6 14 31.2 43.4 26.2 61.4-2.1 7.6-23.7 25.5-30.8 25.5-3.7 0-9.1-4.6-9.1-7.7 0-1-1.1-3.5-2.5-5.6-2-2.8-3.3-3.7-5.4-3.7-3.9 0-5 3-4.3 11.8l.5 7.2h-8.5l.7-4c1.2-7.4-2.7-14-8.2-14-2.8 0-3.9 2.1-5.7 11-1.3 6.5-1.3 6.5-4.9 6.8-3.6.3-3.7.2-3.1-2.6.8-4.2-1.9-10-5.1-10.8-3.3-.8-5.7 1.3-8 7.2l-1.7 4.5-4.7-.3-4.6-.3.3-5.8c.3-4.5 0-6.3-1.4-7.8-3.4-3.8-7.9-1.5-13.4 7l-1.5 2.3-6.3-3.4c-14.4-7.6-25.7-19-32.7-33-7.4-14.8-9.6-31.8-5.1-41 5.4-11.1 19.9-18.7 41.9-21.8 8.8-1.3 43.6-.3 53.8 1.4z"/>
      <path d="M293.5 230.1c-11.9 1.2-31.5 9.5-31.5 13.4 0 2.7 6.6 3.5 15.4 1.9 4.4-.9 12.4-1.8 17.6-2.1 11.1-.6 21.1 1.5 44.3 9.1 19.3 6.4 24.6 6 16.9-1.3-7-6.7-25.3-16.1-36.8-19-9.7-2.4-16.8-2.9-25.9-2zM89 317.4c-.7.9-1.5 5.5-1.9 10.3-.6 8-.5 9.1 1.8 13.8 5.3 10.7 19 20.9 35.7 26.5 4.9 1.7 11.3 3.2 14.3 3.3 10.6.4 7.4-3.5-13-16-8.3-5-15.9-10.6-20-14.6-6.1-5.9-6.9-7.1-9.5-15.3-3-9.1-4.8-11.1-7.4-8zM520.1 356.2c-10 20.7-30.5 37.3-57.7 46.6-8.5 2.9-25.9 6-39.5 7.1-11.8.9-15.9 2.1-15.9 4.6 0 1.9 7.7 4.2 18.6 5.5 16.4 2 41.7-2.1 55.9-9.3 20.3-10.1 37.7-27.6 44.1-44.2 2.2-5.8 2.6-19.6.7-20.2-.8-.3-3.2 3.6-6.2 9.9z"/>
    </g>
  </symbol>
  <symbol viewBox="0 0 624 624" id="allergens-fish">
    <g fill="currentColor">
      <path d="M173.5 102.1c-20.9 2-48.8 8.3-64.9 14.5-23.3 9.1-39.6 19.3-54.1 33.9C40.7 164.2 36 175.8 36 196c0 21.4 5.7 43.6 19.4 75.5 3.1 7.1 5.6 13.4 5.6 13.8 0 1.6 13.5 25.5 19.8 35.1 11.3 17.3 41.7 46.2 64.5 61.4 21.8 14.6 47 26 62.2 28.1 3.3.5 8.5 1.6 11.5 2.5 3 .9 8.5 2.1 12.2 2.5 3.8.5 7.9 1.6 9.3 2.5 2.7 1.8 5.2 1.8 53.6 1.8 57.4-.1 106.9-7.3 139.8-20.4 4-1.6 7.5-2.7 7.8-2.5.2.3-.1 8.5-.6 18.3-1.2 20.1-.9 22.2 5.4 43.6 4.4 14.5 6.9 19.7 14.3 29.8 10.1 13.7 37.9 40.4 39.5 37.9.2-.2 2.8-3.6 5.8-7.4 5.2-6.5 11.9-18.4 11.9-20.9 0-.6 1-2.7 2.3-4.6 2.5-3.8 5.8-15.1 6.3-21.5.1-2.2 1.2-10.6 2.3-18.7 1.2-8.2 2.1-16.5 2.1-18.5 0-7.2.7-8 12.4-15.2 14.1-8.8 29.5-21.2 34.9-28.2 6-7.7 13.9-20.3 17.4-27.9 3.4-7.4 5.7-13.9 5.1-14.6-.3-.2-19.5-.5-42.9-.6-53.9-.4-53.7-.4-78.4 12.3l-17.2 8.8-.6-8.7c-1.5-20.6-9.2-41.2-32.6-86.9-.5-1-1.5-3.2-2.2-4.8-.7-1.7-2.1-4.2-3.1-5.7-1-1.4-1.8-3.1-1.8-3.8 0-.6-1.8-3.7-4-6.9-3.4-5.1-14-25.9-14-27.5 0-.3 1.9-.6 4.1-.6 3.2 0 5.6-1 10.8-4.4 7.1-4.7 15-9.1 30.1-16.9 5.2-2.7 10.5-5.4 11.7-6 3.3-1.8 4.4-5.2 3.7-11-1-7.3-3.5-12.6-9-18.8-11.9-13.5-29.5-22.7-59.4-30.8-13.9-3.8-44.8-10-47.2-9.4-3 .8-8.5 4.8-9.9 7.4-1.4 2.7-.4 6.5 1.8 7.4 1 .4 9.9 2.7 19.8 5 40.2 9.7 63.2 19 75.9 30.6 4.6 4.2 5.6 5.7 5.6 8.3 0 4.4-1.9 5.9-14.1 11-11.5 4.7-16.1 7.3-24.2 14l-5.4 4.4-7.7-12.3c-26.6-43.1-55.4-69.5-92.3-84.6-10.3-4.2-35.2-11.1-46.3-12.8-23.8-3.7-58.5-5-78.5-3zm66.5 24.5c16.6 2.4 24.6 4.2 37.5 8.5 23.1 7.8 41.6 19.2 59 36.4 21 20.8 37.5 46.4 58.1 90 2.6 5.5 6.8 13.1 9.4 17 2.5 3.8 5.9 9.7 7.4 13 1.6 3.3 5.2 10.9 8.1 17 13.3 27.4 19.2 44.3 20.2 58.2l.6 8.3-6.7 3c-13.6 6.2-36.7 11.7-62.6 14.9-19.3 2.4-51.3 5-62.5 5.1-17 .2-68.9-3.9-71.7-5.6-.5-.3-2.4-.8-4.1-1-1.8-.3-7.9-1.6-13.6-3-33.3-8.2-58.5-21.7-85.3-45.7-7.2-6.4-8.8-8.3-8.8-10.7 0-3.4-2.3-6-5.3-6-1.4 0-3.7-1.8-6.4-5.2l-4.2-5.3 4.5-4.1c3.9-3.6 4.5-4.7 4.2-7.5-.5-4.9-2.5-5.6-10-3.3-3.4 1-6.6 1.9-7.1 1.9-.4 0-2.5-2.7-4.7-5.9l-3.9-6 5.9-2.8c9.7-4.7 14.2-12.4 8.7-14.9-1.8-.8-4.3-.5-11.2 1.5-4.9 1.4-9.4 2.6-10 2.6-.8 0-7.5-11.9-7.5-13.4 0-.1 1.8-.8 4.1-1.5 5.1-1.5 11.9-7.6 11.9-10.6 0-4.3-2.1-4.9-12.3-3.5-5 .8-9.4 1.4-9.7 1.4-.5.1-6.9-15.3-7-16.6 0-.4 2.1-.5 4.8-.2 8.2.9 15.4-5.6 11.9-10.9-1.3-2-2.7-2.5-8-3.1-3.5-.3-7.7-.3-9.4 0l-3.1.6-1.1-6.4c-1.6-9.6-1.5-12.2.7-11.3 7.5 3.1 14 2.3 16.8-2.1 3.4-5.1-1.6-8.9-14.3-10.9-5.3-.8-5.4-1.9-1.8-13.4 6.5-20.5 23.2-31.9 61-41.6 32.1-8.2 86-11.4 117.5-6.9zm328.5 237.6c4.9.5 9.1 1.1 9.3 1.3.6.5-13.7 18.1-17.4 21.6-1.6 1.5-9 5.9-16.4 9.9-17.1 9.1-26.1 15.1-30 19.8-5.2 6.2-6.1 11.3-7 37.2-.7 21.4-1 24.3-3.5 32.5-1.5 4.9-3 9.8-3.2 10.7-.3 1-.9 1.8-1.3 1.8-.8 0-19.2-20.4-19.8-21.8-.1-.4 1.2-1.3 2.9-2.1 3.4-1.5 6.3-6.9 5.3-9.6-1-2.5-4-3.2-10.7-2.4-6.6.8-7.7.3-7.7-3.8 0-1.5 1-2.8 3-3.8 3.8-2 6.4-5.8 5.5-8.4-.6-2.1-1.6-2.5-7.6-3.5-3.8-.7-4.9-2.3-4.9-7.3 0-1.6.8-2.4 2.8-2.9 4-1 6.2-3.3 6.2-6.6 0-2.4-.9-3.4-5.1-6.1l-5.1-3.1.6-9.6c1.3-19.1 1.2-18.8 7-22.4 30.2-19.3 31.3-19.8 41.5-21.2 11.1-1.4 42.5-1.6 55.6-.2z"/>
      <path d="M142 162.6c-5.4 2.3-7.9 5.3-9.6 11.3-2 6.6-1.3 12.7 2.1 19.6 4.3 8.9 12.5 11 22.6 5.7 4.2-2.2 5.8-3.8 7.9-7.7 5-9.8 2.4-23.8-5.3-28.5-3.9-2.4-12.6-2.6-17.7-.4zM268.7 190.7c-1.7 1.6-.2 4.3 5.7 10.3 5.4 5.6 6.5 7.3 7.5 11.9 2.4 11-2 20.5-11.6 25.3-3.8 1.8-7 2.4-15.2 2.8-7.3.3-10.6.9-10.9 1.8-.2.7 3.4 5 8.1 9.5 8 7.7 8.5 8.5 9.2 13.3.9 7.1-.9 12.7-5.6 17.9-7.4 8-18.8 9.7-29.4 4.5-12.4-6.2-14.7-2.8-5.2 8 7.4 8.4 9.6 15.5 7.7 24.6-1.4 6.7-5.7 12-10.8 13.4-2.4.6-6.9.6-12.4 0-7.2-.7-9.9-1.5-15.1-4.4-7.6-4.3-9.7-4.5-9.7-1.2 0 3.5 7.1 10.8 14.2 14.6 8.5 4.6 19.3 5.3 28.2 2 7.3-2.8 13.8-9 17.3-16.6 2.2-4.9 2.4-6.5 2-13.7-.2-4.5-.8-9.1-1.2-10.3-.6-2-.2-2.1 5.9-2.6 8-.7 13.5-3.7 19.9-10.8 8.4-9.3 10-22.2 4.5-34.2l-2.7-5.8 4.2-1.1c8.8-2.3 16.5-8.5 20.9-16.9 3.5-6.8 3.2-18.5-.6-26-3.6-7-7.9-11.6-13.8-14.6-4.6-2.3-9.7-3.1-11.1-1.7z"/>
      <path d="M315.6 201.9c-1.1 1.7 1.1 5.6 6.8 12.2 6.7 7.9 9.5 13.8 9.6 19.9 0 5.9-2.8 10.3-8.2 13.2-3.9 2.1-5.5 2.3-18 2.1-8.6-.1-14 .2-14.4.8-.3.6.3 2.1 1.5 3.3 1.2 1.2 2.1 2.6 2.1 3.1 0 .4 1.7 3.1 3.9 5.9 2.1 2.8 5 6.9 6.4 9.1 1.3 2.2 3.8 5.7 5.5 7.8 6 7.4 5.2 18.5-1.9 26.2-7.4 8-18.8 9.7-29.4 4.5-12.4-6.2-14.7-2.8-5.2 8 7.4 8.4 9.6 15.5 7.7 24.6-1.4 6.7-5.7 12-10.8 13.4-2.4.6-6.9.6-12.4 0-7.2-.7-9.9-1.5-15.1-4.4-7.6-4.3-9.7-4.5-9.7-1.2 0 3.5 7.1 10.8 14.2 14.6 8.5 4.6 19.3 5.3 28.2 2 7.3-2.8 13.8-9 17.3-16.6 2.2-4.9 2.4-6.5 2-13.7-.2-4.5-.8-9.1-1.2-10.3-.6-2-.2-2.1 5.9-2.6 15-1.2 27.6-15.3 27.6-30.8-.1-9.8-3.2-16.7-12.9-28.1l-3.3-3.9h6.3c17 0 29.4-13.3 27.5-29.4-1.2-10.8-11-24.3-21.2-29.1-3.6-1.7-8-2-8.8-.6zM353.7 266.7c-1.7 1.6-.2 4.3 5.7 10.3 5.4 5.6 6.5 7.3 7.5 11.9 2.4 11-2 20.5-11.6 25.3-3.8 1.8-7 2.4-15.2 2.8-7.3.3-10.6.9-10.9 1.8-.2.7 3.4 5 8.1 9.5 8 7.7 8.5 8.5 9.2 13.3.9 7.1-.9 12.7-5.6 17.9-7.4 8.1-18.4 9.7-29.4 4.4-6.2-3-10.5-3.5-11.2-1.3-.8 2.5 4.5 8.1 11.2 11.7 6.9 3.7 7.1 3.8 17 3.5 8.8-.3 10.6-.7 14.6-3 6.5-3.8 13.4-11.9 15.4-17.9 2.4-7.1 1.7-16.7-1.7-24.1l-2.7-5.8 4.2-1.1c8.8-2.3 16.5-8.5 20.9-16.9 3.5-6.8 3.2-18.5-.6-26-3.6-7-7.9-11.6-13.8-14.6-4.6-2.3-9.7-3.1-11.1-1.7zM178 405.7c-.8.3-3 1.9-4.7 3.6-5.1 4.8-4.6 7.8 3.9 22.1 3.9 6.6 8.4 13.4 10 15.1 1.5 1.6 7.2 8 12.6 14.1 10.6 12.2 18.4 18.2 27.7 21.5 14.6 5.1 30.6-1.9 32.2-14.2.3-2.3 0-8.5-.7-13.8-1.1-8.6-1-10.1.5-14.1 3.1-8.3 3.1-10.3-.5-13.4-3-2.4-3.9-2.7-10.3-2.4l-7 .3-1.5 4.5c-1 3.1-1.5 9.4-1.6 20.2 0 8.7-.4 15.8-.9 15.8-.4 0-3.8-1.6-7.6-3.6-7.1-3.7-12.2-8.8-21.7-21.6-8.8-11.9-10.8-15-15.6-23.7-2.5-4.7-5.4-9.1-6.4-9.8-1.8-1.3-5.7-1.6-8.4-.6z"/>
    </g>
  </symbol>
  <symbol viewBox="0 0 624 624" id="allergens-lupin">
    <g fill="currentColor">
      <path d="M70.4 47C60.3 51 55 59.4 55 71.3c0 17.9 12.4 39.2 27.1 46.6l5.9 2.9-3.7 1.3c-4.4 1.4-12.2 8.9-14.6 14.1-2.5 5.4-4 14.4-3.2 20.3 1.8 14.8 14.9 28 29.7 30 4.1.6 5.6.3 11.9-2.9 3.9-2 8.7-4.5 10.6-5.7 4.6-2.9 7.5-1.9 10.7 3.4 4.3 7.3 10.8 19.6 10.8 20.4 0 .4-2.4 1.5-5.3 2.5s-6 2.4-6.8 3.2c-.9.9-4.2 2.7-7.4 4.1-3.1 1.5-10.7 5.6-16.9 9.2-11.3 6.6-13.9 8-19 10.3-3.9 1.8-6.1 7.9-5.2 14.7.8 7 3.6 10.3 11.9 14.1 3.5 1.7 7 4 7.7 5.2 2.2 3.6 15.3 12.6 23.2 15.9 14 5.8 27.7 6.3 42.2 1.6 4.9-1.7 17.4-9.3 17.4-10.7 0-2.3 3.1-.1 7.5 5.3 2.8 3.4 10.8 11.7 17.9 18.5 7.1 6.9 12.7 12.6 12.5 12.8-.2.1-2.4 1.1-4.9 2-7.1 2.7-13.9 7.4-21.9 15.1-25.3 24.2-32.1 58.2-13.3 66.8 4 1.9 6.3 2.2 16.2 2 10.2-.1 27.8-2.7 33.3-4.8.9-.4 1.7-.5 1.7-.2s-1.6 5-3.5 10.5c-4.7 13.7-6.4 30-3.8 38.5 1.4 4.9 2.4 6.3 6.4 9.2 3 2.1 5 3 5.6 2.4.7-.7 2.7-.6 5.7.2 6.9 1.7 28.1.6 38.1-2 4.4-1.2 10.4-3.6 13.3-5.4 15.2-9.1 26.9-29.4 30.5-53.1l1.2-7.5 17.5 9.5c34.3 18.6 59.5 33.9 58.5 35.4-.2.4-2 1-3.9 1.3-14.8 2.4-50.2 31.3-57.7 47-3.3 6.9-3.8 14.5-1.5 20 4.5 10.8 27.4 21.7 45.5 21.7 3.4 0 6.1.1 6.1.2 0 .2-.7 2.1-1.5 4.3-2.1 6-1.9 17.1.6 22.5 4.6 10.1 14.2 18.4 25 21.4 3.5 1 7.2 2.2 8.1 2.7 3.2 1.6 16 1 20.3-1 4.4-2 12-9.9 14.7-15.2C463 538.1 472 513.8 472 509c0-4.1 2-2.7 6.9 4.8 2.8 4.2 7.4 10.8 10.1 14.6 2.8 3.8 5 7.8 5 8.7 0 1 1.1 3.1 2.5 4.7 1.3 1.6 3.3 4.9 4.3 7.3 2.1 4.9 8.9 12.7 11.2 13 3.6.4 5.2-.3 8.9-3.7 4.4-3.9 6.6-9.1 5.7-13-.4-1.4-2.5-4.5-4.8-7-2.2-2.4-5.2-6.1-6.7-8.3-10.1-14.9-12.6-19-14.8-24.4-1.4-3.4-6.3-11.7-10.9-18.4-4.6-6.8-8.4-12.7-8.4-13.3 0-.5 1.2-1 2.6-1 8.4 0 25.4-7.3 35.9-15.4 6.4-5 13.6-13 16.2-18 .9-1.7 3.3-5.6 5.3-8.6 3.5-5.1 3.9-6.2 4.5-14.7 1.1-14.9-1.5-23.2-9.9-31.6-11.7-11.7-23.4-11.6-47.1.2-5.4 2.8-10 4.9-10.1 4.8-.2-.1-1.6-10.1-3.3-22.2-4.2-29.9-6.8-35-20-38.9-17.2-5-30.5 1.7-39.5 20-4.2 8.4-11.7 31.2-13.5 40.9-.6 3.2-1.2 5.9-1.3 6.1-.2.1-7.7-4.1-16.8-9.3-9.1-5.2-19.9-11.2-24-13.3-4.1-2.1-8.4-4.5-9.4-5.3-1.9-1.4-1.8-1.5 1.5-3.2 13.1-6.7 25.4-22.7 29.4-38.2 1.8-6.8 1.4-9.8-3.7-27.8-3.9-13.7-13.5-30.2-19.3-32.9-6.1-2.9-17-2.1-26.7 1.9-1.6.6-1.8.1-1.8-3.8 0-14.8-8.1-30.7-18.3-35.9-8.3-4.2-19.9-1.8-32.9 6.9-19 12.6-31.4 30.7-35.7 52.1l-1.7 8.3-9.5-8.5c-9-8.2-27.9-28.4-27.9-29.8 0-.3 5.9-6.2 13.1-13 7.2-6.7 15.1-15 17.6-18.3 17.8-23.4 17.2-49.9-1.6-68.5-8.5-8.5-16-12.2-25.7-12.8-6.1-.3-7.8-.1-12.1 2.2-6 3-8.9 6.4-10.4 12-2.1 8.3-3 10.4-9.4 20.6-3.6 5.8-7.3 12.6-8.3 15.2-.9 2.7-2 4.8-2.4 4.8-.8 0-13.9-22.8-14.2-24.7-.1-.7-.9-2-1.7-3-.9-1-2.6-3.5-3.8-5.5-2.8-4.7-2.1-7.5 2.4-9.4 5.1-2.1 15.4-9.7 20.7-15.1 2.9-3.1 5.7-7.4 7.7-12 2.8-6.8 2.9-7.7 2-13.4-.5-3.4-1.6-7.6-2.3-9.4-4.7-11.1-26.3-25.5-38.3-25.5-4.8 0-14.3 3.6-15.7 5.9-1.3 2.1-2.4 1.1-3.1-3-.4-2.3-2.7-8.1-5.1-12.9-10.1-20.2-27.7-30-43-24zm13.9 25c5.7 3.6 12 12.8 13.7 20.1.7 2.7 1 5.3.7 5.6-1.3 1.3-8.4-2.3-12.2-6.3-3.9-3.9-10.4-14.9-12-20.2-.5-1.9-.3-2.2 2.2-2.2 1.6 0 5 1.3 7.6 3zm60.4 32.5c5.9 5 10.3 12.1 10.3 16.5 0 7.6-9.7 21-15.3 21-2.7 0-6.1-3.3-7.6-7.3-1.6-4-1.3-14.4.4-20.1 1.6-5.3 6.1-13.6 7.4-13.6.4 0 2.6 1.6 4.8 3.5zm-47 39.7c3.9 4 5 6.8 5.9 14.7.7 6.9.2 7.3-6.2 4.6-3.7-1.5-7.3-7.7-7.4-12.5 0-4 2-10 3.4-10 .6 0 2.6 1.5 4.3 3.2zM213.4 170c4.6 2.2 11 8 13.8 12.5 1.9 3.1 2.6 12.9.9 13.9-.4.3-1.6-.3-2.6-1.4-5.6-6.1-17.5-4.1-17.5 3 0 3.5 1.5 4.7 9.1 7.4l6 2.2-4.4 6c-4.4 6-15.5 16.5-23.6 22.2l-4.4 3.2-4.9-8.3c-4.7-7.9-4.8-8.4-4.3-13.9.3-3.2 1.4-8.1 2.4-11 2.4-7 11.9-26.3 16-32.7 2.8-4.3 3.8-5.1 6.4-5.1 1.7 0 4.9.9 7.1 2zm-51.2 68.3c6.2 10.4 7.5 13.4 6.5 14.3-.6.7-4.7 3.2-9 5.5-13.8 7.4-25.2 6.5-37.8-2.7-3.3-2.5-7.6-5.2-9.5-6.1-1.9-.9-3.4-2-3.4-2.4 0-2 24.7-16.3 33.8-19.5 11.1-3.9 10.6-4.2 19.4 10.9zm142 13.8c1.4 1.1 3.7 4 5 6.7 2.1 4.3 2.3 5.9 2.2 20.2 0 14.4-.2 15.9-2.5 21-3.3 7.1-18.2 31.1-19.1 30.7-.4-.1-4.1-3-8.2-6.5-12.6-10.6-19.6-21.9-19.6-31.8 0-17.7 23.4-45.1 36.5-42.7 1.7.3 4.2 1.4 5.7 2.4zm46.7 33.8c2 1.3 8.1 11.4 10.2 17.1 3.8 10 3.6 19.6-.7 29.8l-1.4 3.5-5-4.7c-2.7-2.5-5.8-4.6-7-4.6-2 0-6 3.2-6 4.9 0 .5 1.6 4.2 3.6 8.2 3.4 6.8 3.5 7.4 1.9 8.4-1 .5-3.3 2.1-5.3 3.3-6.2 4.1-9.2 4-15.9-.6-6.3-4.3-9.3-7.9-9.3-11.1 0-1.1 2.1-6.2 4.6-11.3 2.5-5.1 5.2-11.4 6-13.9.7-2.5 2.4-6.2 3.7-8.1 1.3-1.8 3.8-6.3 5.6-9.9 5.2-10.1 6.6-11.7 10.4-11.7 1.9 0 3.9.3 4.6.7zm-106.6 47.4c7.8 3.9 16.7 12.3 16.7 15.8 0 2.6-5.5 6.7-15.4 11.5l-8.9 4.4-7.3-4c-11.8-6.5-17.3-4.9-13.3 4 1.1 2.3 1.8 4.4 1.7 4.5-1.1 1-12.2 2.5-18.2 2.5s-7.6-.4-9.1-2c-1.5-1.7-1.6-2.5-.6-6.3 3.6-14.7 13.9-26 29.1-32.4 8.1-3.4 15.5-2.8 25.3 2zm204.2 16.9c6.2 28.2 8.1 44 6.5 54.1-1.6 10.1-5.4 16.4-12.4 19.9-2.9 1.5-3 1.5-10.2-4.6l-7.3-6.1V407c-.1-7.9 1.6-16 6.8-33.3 2.2-7.3 4.4-15.1 5.1-17.5 1.4-5.4 4.1-8.2 8-8.2 2.3 0 3.1.5 3.5 2.2zm-149.7 26.2c1.7 1 .8 18-1.4 26.4-3.2 12.3-10.6 22.2-19.5 26.1-5.3 2.4-23.2 4.6-28.5 3.6-8.4-1.5-9.4-7.7-3.9-23.7 5.1-15 9.3-19.9 22-26.3 5.5-2.8 10.4-5.6 10.9-6.4.6-1 3-1.2 10-.9 5 .2 9.7.7 10.4 1.2zm221 25.7c12 5.9 10.3 16.9-5.2 32.4-7.8 7.8-13.8 11.1-25.7 14.5-8.1 2.2-18.4 2.6-22.3.9-5.8-2.7-4.8-11 1.8-16.4 4.3-3.5 10-12.1 11.2-16.8 1-4.1 13.6-13.4 21.4-15.8 5.2-1.5 14.2-1 18.8 1.2zm-98.1 46.4c6.4 1.9 13.1 6.7 13.9 10.1 1 3.7-2 9.4-8.1 15.4l-5.3 5.2-.7-4.1c-.9-5.2-3.7-8.8-7.6-9.6-3.6-.8-7.9 1.6-7.9 4.4 0 4 4.1 15.1 6.1 16.5 2.1 1.4 2 1.5-2.2 4.6l-4.3 3.1-1.1-5.5c-1.4-7.1-4.5-10.6-9.5-10.6-6.4 0-7.4 3.2-4.1 12.9l1.9 5.3-5-.6c-7.1-1-19.9-5.2-23.9-7.9-7.4-5-4.2-12.2 11.6-25.5 10.7-9.1 13.6-11 19.8-13.2 6.5-2.4 19.3-2.6 26.4-.5zm28.8 42.1C445 525 434.7 549 425.4 549c-7.7 0-14.4-9.3-14.4-20.1 0-6.5 1.4-8.5 11-15.6 6.1-4.5 11.2-9.7 15.6-15.8 5.9-8.2 13.6-17.6 14-17.2.3.3-.2 4.9-1.1 10.3z"/>
    </g>
  </symbol>
  <symbol viewBox="0 0 624 624" id="allergens-milk">
    <g fill="currentColor">
      <path d="M405 23.1C369.5 26 285.9 27.3 224.3 26l-23.1-.5-2.7 2.5c-4.8 4.4-5.7 8.1-6.5 27-1 21.8-5.1 41.9-10.3 50-1.2 1.9-3.3 5.6-4.7 8.2-1.4 2.5-3.7 6.1-5.3 8-1.5 1.8-5.5 6.9-8.9 11.3-3.4 4.4-11.7 13.6-18.5 20.5-8.9 9-12.3 13.1-12.4 15-.4 11.4.5 38.3 2.1 62 4.2 62.6 5.7 103.4 7 186.5 1 66.9 2.4 115.2 3.8 139l.7 10.9 4.1 3.1c3.6 2.7 5.4 3.3 14.5 4.3 5.7.7 19.6 2.4 30.9 3.8 24.7 3.1 41 4.1 93.5 5.4 41.2 1.1 76.9.6 93.4-1.1 23.9-2.6 36.8-8.8 69.1-32.9 6.9-5.1 17.1-12.4 22.8-16.2 14-9.4 23.4-18.5 27.2-26.2 5.5-11.3 6-19.2 3.5-61.5-2.9-50.5-5.5-108.5-6.5-149.2-.5-22.8-1.5-61.2-2.2-85.4-.7-24.2-1.2-51.5-1-60.6l.3-16.7-4.7-5.3c-8.7-9.8-30.9-32.1-33.6-33.8-3.8-2.4-22.8-23.2-23.4-25.6-.2-1.1-.8-10.4-1.2-20.6-1.2-27.2-.9-27-27.2-24.8zm5.2 40.6c.3 8.6 1.1 15.3 2 17.8 1.4 3.7 1.3 4.1-.8 7.2-3.6 5.3-13.5 32.8-18 49.8-2 7.5-2.4 18.9-.7 20.6 1 1 2.1.4 5.1-2.8 7.4-7.7 17.2-31.2 21-49.9.9-4.7 2.1-8.5 2.5-8.5.9 0 45.7 42.3 45.7 43.1 0 .3-4.8 1.5-10.8 2.7-26.1 5.4-52.2 16-52.2 21.3 0 7.9 46.9-1 66.8-12.6 2.4-1.4 4.6-2.3 4.9-2 .4.3.8 33.6 1 73.8.3 66.3 1.6 120.2 4.3 173.2.5 10.5.8 19.1.7 19.3-.2.1-2.5-.9-5.2-2.2-6-3.1-12-3.3-13.5-.6-1.5 3-.4 4.8 10.1 15.9l9.8 10.3.3 7.9c.2 5-.1 7.6-.7 7.2-.5-.3-2.9-1.9-5.2-3.4-5.3-3.6-14.5-6.8-19.4-6.8-3.4 0-6.9 2-6.9 3.9s4.4 6.1 10.7 10.4c3.7 2.6 10.5 7.8 15.1 11.7l8.2 7.1v8.3c0 8-.1 8.5-2.7 10.4l-2.6 1.9-3.8-5.6c-8.8-13.2-23.8-23.6-33.1-22.9-3.9.3-4.3.6-4.6 3.1-.3 2.4 1.6 4.7 15.4 18l15.7 15.2-6.2 4.4-6.2 4.3-5.8-5.5c-6.1-5.8-9.4-7.3-13.6-6.3-5.2 1.3-4.1 8.3 2.6 16.7 1.6 2 2.9 3.9 2.9 4.2 0 .9-31.4 22.5-39.2 27l-7.2 4.2-34.5.7c-19.1.4-51.2.3-71.6-.2-20.3-.6-38-1-39.2-1-2 0-2.1-.3-1.6-5.5.5-5.1.4-5.5-2-6.6-3.7-1.7-10.2 1-16.4 6.5l-4.8 4.3-7.8-.5-7.7-.5 4.8-5.1c11.8-12.5 16.5-27.6 8.6-27.6-2.1 0-6.1 3.3-18.8 15.9l-16.1 15.9-5.5-.5c-3-.3-5.7-.7-5.9-.9-.8-.7 12.6-15.4 22.8-24.9 6.1-5.8 10.7-10.9 10.9-12.2.4-2.5-3-6.3-5.5-6.3-3.9 0-16.6 10-34.9 27.4l-7.3 6.8-.7-2.7c-.4-1.6-.4-9.4-.1-17.4.6-14.5.6-14.6 3.4-16.9 4.9-4 21.3-16.6 24.2-18.7 5.9-4.1 9.4-12.3 6.8-15.9-1.2-1.6-1.8-1.7-5.7-.6-4.3 1.2-9.2 4.9-22.6 17.4l-6.4 5.9v-17.5l6.1-6.6c9.8-10.7 13.8-18.9 10.7-22-2-2-5.1-1.4-10.8 2.2l-5.5 3.5-.2-8.7c-.1-4.8-.7-32.6-1.3-61.7-1.2-57.4-1.3-61.5-6.1-148.5-1.8-32.2-3-59.6-2.6-61.1.4-1.4 3.5-5.5 7.1-9.2 8.4-8.9 31.1-37.8 40.8-52.2 10.6-15.7 12-20.4 12.6-41.5l.4-16.5 35.1.9c33.6.8 112.6-.5 139.2-2.4 5.5-.4 12.5-.7 15.6-.8l5.7-.2.4 13.7z"/>
      <path d="M344.5 80c-20.9.4-45.2 1.3-54 2.1-8.8.8-18.2 1.3-21 1.2-2.7 0-14.7-.4-26.6-.8-15.9-.6-22.5-.5-25.2.4-9.2 3.1-1.1 6.4 28.3 11.6 23.4 4.2 30.5 4.4 71.6 1.5 36.6-2.5 54.9-4.4 70.5-7 14.6-2.4 18.5-3.6 19.3-5.5 1.6-4.2-5.6-4.6-62.9-3.5zM303.5 110.5c-15.7 9.5-25.9 20.6-23.9 26 2 5.2 20.6-2.6 29.7-12.4 6.4-6.9 8.1-10.7 6.3-14.2-1.8-3.6-5.3-3.4-12.1.6zM329.5 115.9c-5.9 3.4-13.2 10.9-14.1 14.6-1 4.2 2.1 6.8 7 6 8.4-1.3 18.7-9.1 20.2-15.2 2-7.9-4.3-10.5-13.1-5.4zM286.5 163.3c-13.7.5-43 .9-65 .8-57.7-.1-73.7 2-61.4 8.1 4.4 2.2 23 4.3 57.4 6.3 23.4 1.4 29.5 1.4 60.5 0 58.9-2.6 98.7-6.3 102.7-9.6 4.3-3.6-1.7-4.7-33.7-5.9-15.1-.5-29.3-.9-31.5-.8-2.2.1-15.2.5-29 1.1zM394 177.6c-2 6.8-3.1 42.3-2.9 99.4.3 67.7.3 113 0 187-.2 54.1.6 75 3 84.2 3.4 13 7.3-2 9.9-38.2 5.2-72.8 6.7-117.9 5-147-.6-10.7-1.5-36.6-2-57.5-1.4-68.6-6-125.9-10.4-130.3-1.3-1.3-1.6-1-2.6 2.4zM298.5 225.2c-6 .5-27.6.6-48 .3l-37-.5-5.2 3c-9.9 5.7-12.8 13.3-12 31.7 1 25.6 3.7 75.4 4.7 86.3 1.6 19.3 5.4 26.3 16 29.4 10.8 3.2 22 3.3 22 .2 0-1.6-3.4-2.9-12.3-4.6-6.8-1.4-12.1-5.4-13.6-10.3-.5-1.8-1.1-27.3-1.4-58.9-.6-62.2-.9-59.1 6.3-60.6 1.9-.4 14.5-.4 28 .2 23.1.9 35.1.5 73.1-2.1 5.9-.4 6.9-.2 9.4 2l2.8 2.4.2 30.4c.2 25.8.6 33.8 2.9 52.9 1.4 12.4 3.1 24.3 3.6 26.5 1.3 5.6 1.2 15.2-.2 16.1-.6.4-12.9 1.3-27.2 2-33.7 1.6-51.6 3.4-57.6 5.6-9 3.4 16.8 4.6 60.5 2.9 17.1-.7 31.9-1.4 33-1.6 2.7-.5 6.7-4.3 5.9-5.6-.3-.5-1-6.2-1.5-12.7-.4-6.4-1.3-17.3-1.9-24.2-2.7-33.1-3.2-45.8-2.6-68 .8-28.4.2-31.5-7-37.9-2.6-2.3-6.3-4.5-8.3-5.1-4.2-1.2-17-1.1-32.6.2z"/>
      <path d="M255.5 277.6c-15.3 2.7-20.3 6.1-15.7 10.7 3.3 3.3 19.1 4.4 41.8 2.9 20.7-1.4 28.7-3.2 29.2-6.8.9-6.6-33-10.7-55.3-6.8zM264.3 314.9c-2.3 1.1-4.9 3.1-5.8 4.5-1.6 2.4-1.6 2.8-.1 5 4.4 6.9 32.6 4.8 37-2.7.9-1.5.6-2.3-1.7-4.2-3.6-3.2-8.7-4.5-17.7-4.5-5.2 0-8.8.6-11.7 1.9z"/>
    </g>
  </symbol>
  <symbol viewBox="0 0 624 624" id="allergens-molluscs">
    <g fill="currentColor">
      <path d="M309.8 85.5c-21.6 1.7-55.9 6.8-72.3 10.6C189.6 107.3 135.5 143 98 188c-24.1 28.9-43 64.7-51.5 97.3-7.8 30.2-7.1 52.1 2.4 73.2 18.7 41.2 73.9 65.2 120.9 52.5 23.3-6.3 38.8-16.4 63.7-41.4 19.9-20 22.4-23.1 75.8-94.8 39.1-52.4 71.9-90.8 105-122.7 8-7.7 10.4-10.8 13.4-16.9 4.5-9.3 5.5-18.7 2.9-25.6-4.3-11.1-19.8-19.4-43.6-23.2-13.2-2.2-55.7-2.7-77.2-.9zm70.1 20c16.4 3.7 25.1 9.3 26.5 16.9 1.3 7.1-.6 10-17.3 27.1-38.5 39.1-62.3 67.8-116 139.8-37.9 50.6-53.4 67.9-77.6 85.9-7.2 5.5-24 14.8-26.5 14.8-.5 0-1-2-1-4.5 0-5.5-2.1-11-4.8-12.4-3.5-1.8-5.4.9-8.2 11.5l-2.5 9.9-6.2.3c-3.5.2-6.3.1-6.3-.2 0-.3.7-3.1 1.5-6.3 1.8-6.9 1.9-14.5.3-16.1-.7-.7-2.2-1.2-3.5-1.2-2.9 0-8.5 7.4-11.4 15.2-1.2 3.2-2.7 5.8-3.3 5.8-1.9 0-11.6-4.9-11.6-5.8 0-.5 2.3-4 5-7.8 9.3-12.7 11.8-20.1 7.3-21.8-4.4-1.7-17.5 9.2-21.8 18.2-1.1 2.3-2.3 4.2-2.6 4.2-.3 0-2.4-1.6-4.8-3.6l-4.2-3.6 4.5-4.8c7.3-7.8 9.5-14 6-17.4-3-3.1-9.4.1-16.2 8l-3.9 4.5-3.6-5.3c-4.3-6.2-4.4-6.8-1.4-6.8 2.8 0 7.3-4.5 8.2-8.2 1.6-6.5-4.5-8.9-12.5-4.8l-3.9 2-1.1-3.8c-3.7-13.3-3.7-34.1 0-48.7 8.8-34.5 32-71.8 65-104.5 19.5-19.4 34.6-30.7 58.1-43.5 24.2-13.3 37-18.8 57.4-24.8 14.8-4.4 25-6.3 47.5-8.7 23.2-2.5 73.3-2.2 84.9.5z"/>
      <path d="M290.5 130.3c-3.4 3.1-5.5 11.6-4.5 18.8 2.2 16.3 14.3 28.1 30.1 29.5 7.2.7 13.9-.8 13.9-3.1 0-1.9-4.5-4.8-10.8-7.1-7.1-2.5-12.4-7.1-17.2-15.3-3.2-5.4-4-7.7-4-11.7 0-6.2-1.6-12-3.5-12.8-.8-.3-2.6.5-4 1.7zM211.2 166.5c-1.1 1.4-3 6.5-4.1 11.4-2.4 10-1.9 18.6 1.7 27.8 3.7 9.8 13.2 20.2 22.7 25.1 9.7 4.9 23.8 7 35 5.3 7.3-1.2 14.5-3.8 14.5-5.3 0-1.6-6.3-3.5-14-4.3-15.2-1.4-30.5-8.2-38.9-17.3-6.8-7.3-9.2-13.4-10.2-26.5-1.1-13.3-1.6-16.2-3.4-17.7-1-.8-1.8-.5-3.3 1.5zM130.5 211.4c-2.7 4-3.5 8.7-3.5 19.6.1 19.2 3.5 31.8 13.4 49 13.2 23 29.3 33.4 53.6 34.7 12.7.6 21.1-1.1 31-6.3 8.2-4.3 12.2-8 10-9.4-1.8-1.2-5.8-.5-17.4 2.7-10.4 2.9-16.7 2.8-29.4-.8-20-5.6-26.8-11.8-39.8-36.4-5.8-11-8.2-19.5-10.5-36.8-2.4-18.6-3.8-21.8-7.4-16.3zM435 211.7c-20.6 3.1-22.7 3.6-31 7.8-23.3 11.8-42.2 30.6-61.7 61.5-5 8-15.9 27.1-28.9 50.5-11.1 20.2-39.5 59.7-73.9 102.8-22.6 28.4-25.9 33.2-28.5 41.6-2.5 7.8-2.7 21.2-.5 29.5 3.9 14.8 14.6 28.1 28.2 34.9 8.1 4.1 27.5 10.1 39.4 12.2 15.7 2.8 31.5 3.6 49.1 2.5 20.6-1.2 32-2.9 50.8-7.4C451.3 530 511 489.3 544.5 434c7.5-12.4 10.9-19.4 16.1-32.7 15.1-39.1 17.8-78.1 7.6-108.3-10.3-30.1-29.1-52.6-56.5-67.4-18-9.7-39.2-14.7-61.5-14.5-7 .1-13.8.3-15.2.6zm41.4 26.4c26.3 5.2 56 23.8 68.9 43 14.6 21.8 14.8 62.3.5 104.4-8.6 25.4-18.7 42.7-36.6 62.4-7.1 7.8-24.8 24.1-26.2 24.1-.3 0-1.4-1.7-2.3-3.8-2.6-5.8-9.8-8.2-13.9-4.5-2.8 2.5-2.2 6.6 1.8 11.8 1.9 2.6 3.4 4.8 3.2 5-1.9 1.5-11.4 7.5-12 7.5-.3 0-.9-1.3-1.3-2.8-1.5-7.1-8-13.2-14-13.2-6.7 0-7 3.4-1.4 14.8 2.3 4.5 4 8.4 3.8 8.6-1.5 1.4-11.1 5.6-11.8 5.2-.5-.3-1.1-2-1.5-3.7-.9-4.5-6.6-9.9-10.5-9.9-4.8 0-5.9 3.4-3.8 11.5.9 3.5 1.7 7 1.7 7.8 0 .9-2.6 2.5-6.6 4.1-3.7 1.5-6.8 2.6-6.9 2.4-.1-.2-1.2-4-2.3-8.5-1.1-4.5-2.8-9.3-3.8-10.7-2.4-3.7-5.9-3.4-8.5.7-1.7 2.7-1.9 4.3-1.5 10.7.3 4.1.8 8.6 1.1 10 .6 2.4.3 2.7-4.8 4.3-2.9.9-5.7 1.7-6 1.7-.3 0-1.5-2-2.6-4.4-1.7-4-4.4-6.6-6.8-6.6-2.9 0-4.8 3.1-5.3 8.6l-.5 5.9-6.3 1.3c-3.5.8-6.5 1.2-6.7 1.1-.2-.2.1-2.7.6-5.4 1.9-9.7-.7-19.5-5.1-19.5-4 0-8.7 10-9.7 20.7-.3 3.6-1.1 6.6-1.7 6.8-.6.2-3.9.6-7.3.8l-6.3.5v-2.9c0-6.5-5.1-12-9.1-9.9-2.2 1.2-5.8 8.2-5.9 11.2 0 1.5-1 1.8-6.2 1.8-7.7 0-9.5-.9-7.9-3.8 2.7-5 .2-13.2-4-13.2-4.1 0-10.9 7.3-10.9 11.7 0 2.9-.8 2.9-11.6-.3-24.2-7-34.4-16.8-34.4-32.8.1-15.6 8.7-30.6 35.1-61.1 18.4-21.2 27.5-34.7 46.1-68 33.8-60.4 43.1-74.4 62.8-94.8 15.6-16.2 32.6-27.4 46.1-30.3 17.3-3.7 34.6-3.8 52.3-.3z"/>
      <path d="M428.2 291.1c-9 1.1-17.1 3.1-26.8 6.9-9.2 3.5-21.7 10.7-20.9 12.1.9 1.4 6.5 1.1 14.6-1 24.6-6.2 43.9-7.1 57.5-2.7 14.1 4.5 30.8 17.4 43.5 33.3 9.6 12.1 13.8 22.1 16.9 41.1.6 3.9 2 8.2 3 9.4l1.7 2.2 1.1-2.1c3.1-5.8 3.4-24.1.5-36.3-3.5-14.9-22.9-38.8-41.2-50.9-16.2-10.6-31.1-14.2-49.9-12zM362.5 356.9c-12.9 2.3-22.1 6.9-18.5 9.1.7.4 10.1 1 20.9 1.3 28.2.7 37.2 3.4 53.6 16.2 20.7 16.2 26.7 25.7 28.6 45.3.9 10.1 2.2 13.5 4.7 13 2.6-.5 4-4.6 5.2-14.6 1.6-14.2-.2-22.2-7.2-32.5-2.3-3.4-6-8.2-8.2-10.6-9.3-10.1-29.4-22.9-41.6-26.6-8.5-2.5-25.6-2.8-37.5-.6zM322.4 418.5c-3.4.7-7.6 2.1-9.3 2.9-6.4 3.4-3 5.2 11.6 6.5 18.7 1.7 29.5 6.3 39.1 16.6 6.7 7.1 9.6 12.6 11.6 22.2 2.7 13 4.8 15.2 8.6 9 1.6-2.6 2-5 2-12.7 0-9-.2-9.8-4-17.6-3.1-6.4-5.5-9.6-10.5-14.2-13.7-12.5-30.2-16.8-49.1-12.7z"/>
    </g>
  </symbol>
  <symbol viewBox="0 0 624 624" id="allergens-mustard">
    <g fill="currentColor">
      <path d="M286.5 32.1c-2.2.4-9.3 1.9-15.8 3.2-12.1 2.5-15.1 4-16.8 8.6-.5 1.2-2 10.7-3.4 21-4.6 36-4.8 37.1-6.5 37.2-.8 0-2.8.3-4.5.5-1.6.2-6.7.9-11.3 1.5-6.4.9-9 1.7-11.3 3.6-5.5 4.7-6.2 7.2-6.7 26.3-.3 11.4-.9 18.4-1.7 20-1.3 2.6-7 8-19.5 18.5-10.9 9.2-21.1 22-32.2 40.4-9.7 16-13.7 27.1-17.7 49.6-.6 3.3-1.4 7.1-1.7 8.5-.3 1.4-.8 10.1-1.1 19.5-.7 26.1 2.1 43.9 16.7 103 8.4 34.3 11.5 50.2 12.9 66.5.6 6.9 1.3 14.6 1.5 17.2.3 2.5.1 9.9-.4 16.5-.6 7.4-.5 17.3.1 26.8 2.7 39.4 2.5 38.4 6.3 49 4 11 6.8 15.1 14.2 20.8 9 6.9 16 8.6 44.4 10.7 8 .6 15.9 1.3 17.5 1.5 3.7.6 40.9.6 45 0 1.7-.2 8.9-.9 16-1.5 12.8-1.1 19.4-1.9 49-6 40.7-5.6 55.3-10.6 67.6-23.1 9.4-9.5 14.7-21.2 19.3-42.4 4.1-19.2 4.8-28.8 5.1-68 .1-20.4.5-39 .8-41.5.4-2.5 1.4-10.8 2.2-18.5.9-7.7 2.5-19.2 3.5-25.5 5.8-34.3 8.2-62.3 7-82.5-1.1-18.5-3-34.9-4.1-35.3-.5-.2-.9-1.2-.9-2.2 0-2.6-5.4-20.8-8.5-28.6-4.1-10.4-7.7-17.1-14.4-27-7.1-10.6-11.5-15.2-32.4-34.4-8.8-8-16.3-15.3-16.8-16.3-.5-.9-1.6-1.7-2.3-1.7-3.9 0-5.8-5.6-8.1-24.5-.4-2.8-1.6-8.7-2.7-13.3-3.1-12.2-3.6-12.5-20.9-11.6l-13.6.7-3.3-10.4c-6-19.4-8.2-26.4-10-31.9-1-3-2.3-7.5-3-9.9-1.4-5.2-3.6-8.8-6.2-10.2-2.9-1.5-15.7-4.6-21.8-5.2-3-.3-7.3-.1-9.5.4zM299 52.7c1.3 1.2 14.9 45.6 14.4 46.5-.8 1.2-41.4 1-41.4-.2 0-1.8 5-39.4 5.6-42.2.6-3.1 1.4-3.8 5.8-4.9 3.7-1 14.5-.4 15.6.8zm55.8 79.2c.7 5.1 1.2 9.4 1 9.6-.4.4-7.8 1.4-18.8 2.5-5.2.6-31.7 1.3-58.8 1.7l-49.4.6.7-5.9c1.5-14 1-13.1 6.8-13.7 13.3-1.5 92-4.6 109.7-4.3l7.5.1 1.3 9.4zm5.5 37.7c37.8 18.9 63.7 47.4 75.6 83.1 5.3 15.9 5.5 19.2 4.2 56.8-.7 18.7-1.8 37.4-2.6 41.5-1.6 9-6 36.2-7.6 48-.7 5-1.1 19.2-1.1 34.7l.2 26.1-2.9-.8c-3.1-.9-15.5.2-21.9 1.9-2.1.6-4.9 2.2-6.1 3.5-3.3 3.5-1.5 6.1 5.6 8.2 7.6 2.2 15.9 1.4 21.8-2l4.5-2.7v16l-4.2.5c-2.4.3-9 1-14.7 1.6-23 2.3-33.2 7.7-23.8 12.7 2.6 1.4 5.7 1.8 16.7 1.8 12.4 0 14-.2 19.9-2.7l6.4-2.7-.6 9.4c-.6 8.8-5.4 30.7-9.2 41.9-3.6 10.7-9.5 16.2-20.6 19.7-6.1 1.9-26.3 5.2-50.9 8.5-6.3.8-17.6 2.4-25 3.5-7.4 1.1-21.2 2.3-30.7 2.6-19.8.7-64.7-1.2-74.6-3.2-8-1.7-17.7-6.6-21.6-11.1-6-6.7-7.5-23.8-6.8-73.4.3-21.2.2-41.8-.3-45.7-1.4-11.2-4.4-22.8-12.5-47.8-11.4-35.8-14.5-48.6-17.6-72.5-1.6-12.3-1.6-48.2 0-58.5 1.8-11.9 5.7-25.7 9-32.2 10-19.8 38.1-49.5 60-63.5l4.5-2.8h31.5c31 0 62.2-1.2 75.1-2.9 11.2-1.5 12.7-1.3 20.3 2.5z"/>
      <path d="M226.1 207.7c-8.2 4.9-17.8 14.2-21.9 21.6-4.1 7.2-6.5 17.4-6 25 .8 10.5 3.9 9.8 9.9-2.1 6.4-12.8 12.8-21.7 24.3-34 10-10.6 10.9-14.2 3.9-14.2-2.6 0-5.9 1.2-10.2 3.7zM331 276.6c-23.5 2.2-43.1 3.4-57 3.5-24.1.1-38.6 1.5-43.2 4.1-6.5 3.6-9.7 8.4-10.9 16-1.1 7.2-.8 10.8 5.4 59.8 1.9 15.1 4 32.2 4.7 38 1.4 13.2 4.6 26.2 7.4 30.2 3.9 5.7 11.7 8.1 19.5 5.9 4.6-1.2 3.3-2.8-3-4-10.8-1.9-11.9-4.1-13-25.6-.4-8.8-1.3-20.7-1.8-26.5-.6-5.8-2-19.7-3.1-31s-2.4-22.9-3-25.9c-1.8-9.4-1.3-17.4 1.3-21.2 2.9-4.3 5-4.6 30.2-4.8 20-.2 35.6-1 64.5-3.6 35.3-3.2 33.4-3.2 36.9.3l3.1 3v20.4c.1 29.9 1.7 70.8 3.5 82.9 1.5 10.9 1.1 14.7-1.8 19-3.4 4.7-15.3 9.5-26.6 10.5-8.1.7-30.8 6.2-33.6 8.1-1.7 1.2.1 1.3 13.5 1 37.6-.9 52-5.1 58.2-17.1 2.1-4 2.2-5.1 1.9-36.1-.2-17.6-.4-44.6-.5-60-.2-24-.5-28.8-2-33.4-2.3-6.7-8-12.6-13.6-14.1-4.9-1.3-18.6-1.1-37 .6z"/>
      <path d="M300.9 321.1c-7 .3-15.5 1.1-19 1.7-3.5.6-9.7 1.6-13.7 2.3-5.1.8-8.1 1.8-10 3.4l-2.7 2.4 2.2 2.2c3.8 3.9 17.7 4.1 61.2.9 16.7-1.2 23.9-2.4 26.7-4.5 3.1-2.2.1-4.2-9.9-6.4-10.9-2.4-17.8-2.8-34.8-2zM289.3 359.7c-6.7 1.4-12.3 4.6-12.3 7.1 0 5.3 11.5 7.1 32.7 4.9 16.7-1.8 21.3-3.3 21.3-7.1 0-1.9-.9-2.8-4.2-4.2-6-2.4-27.6-2.9-37.5-.7zM409.5 511.7c-7.9.9-22.3 3.5-25.2 4.4-4.2 1.3-6.6 4.5-5.3 7 1.1 1.9 12.3 4.9 18.5 4.9 6.1 0 17-3 21.4-5.8 5.2-3.3 6.3-6.8 3.1-9.4-2.1-1.7-5.3-2-12.5-1.1zM394.8 540.5c-14.9 1.7-29.5 4.4-33 6.2-3.9 1.9-3.8 5.6.1 7.3 4.4 1.8 18 2.7 27.7 1.8 15.5-1.3 30.1-9.6 25.3-14.3-2.2-2.3-6.9-2.5-20.1-1z"/>
    </g>
  </symbol>
  <symbol viewBox="0 0 624 624" id="allergens-peanut">
    <g fill="currentColor">
      <path d="M167.5 85.1c-5.9.9-8.3 1.5-28 6.8-42.2 11.3-59.8 20.1-79.3 39.4-23.2 22.8-34.1 56-31.2 94.8 1.4 17.2 5.6 37.4 9.5 44.9.8 1.5 3.2 7.2 5.4 12.6 2.1 5.4 5.3 12.7 7 16.1 1.7 3.4 3.1 6.4 3.1 6.7 0 1.4 9.3 15.5 12.2 18.6 1.8 1.9 6.6 7.3 10.5 12 24.4 29.1 61 55.6 95.8 69.3 10.2 4 39.9 11.7 45.1 11.7 1.9 0 6.7 1.1 10.7 2.5 3.9 1.4 10.8 3.5 15.2 4.6 10.3 2.6 17 5.2 27.6 10.9 15 8.1 22.9 13.9 60.5 44.3 18.6 15 30.8 23.4 42.2 28.8 23.5 11.3 52 16.4 77.7 14.1 46.5-4.3 86.2-24.8 110.7-57.3 1.9-2.6 4.4-5.6 5.4-6.7 1.1-1.2 4.2-6.1 6.9-10.9 4-7.1 5.1-10.1 5.6-15.3.4-3.6 1.2-11.6 1.8-17.9 5.1-48.3-23.8-101.4-74.9-137.8-15.4-11-38.4-22.9-49.7-25.8-3.2-.8-8.3-2.4-11.3-3.6-3-1.2-8-2.7-11-3.4-6.9-1.5-12-3.2-28.6-8.9-22.5-7.8-32.4-12.9-46.9-24.1-10-7.8-17.1-15.4-30.5-32.5-34.1-43.9-61.3-67.4-92-79.9-32.1-13-51.3-16.9-69.5-14zm11.8 22.9c5.9.6 13.8 1.7 17.5 2.6 16.4 3.8 36.8 14 54.2 27.2 11.5 8.8 33.7 30.9 49.8 49.7 19.6 22.9 40.4 43.4 52 51.3 16.5 11.3 33.1 18.3 54.7 23.2 18.3 4.1 33.2 8.9 34.5 10.9.3.5 5.6 3.1 11.8 5.9 37.2 16.6 64.7 40.5 86.5 75.5 17.6 28.1 21.4 58.4 10.6 84.2-4.3 10.4-4 10.1-8.7 7.4-4.8-2.8-8.7-2-11.1 2.3-1.4 2.4-1.3 3 1.7 8.6l3.1 6-7 6.6c-7.2 6.9-8.9 7.8-8.9 4.8 0-3.2-5.1-12.6-8.8-16.5-6.6-6.9-13.9-8.9-16.3-4.6-1 1.9-.2 4.1 6 16 3.9 7.5 7.1 14.2 7.1 14.8 0 1.1-8.8 5.9-16.9 9l-4.8 2-.5-8.4c-1.1-16.1-11.4-31.4-18.7-27.5-2.8 1.4-2.7 3.2 1.4 19.3 3.8 14.9 4.3 20.2 2.2 21-2.4.9-20.7 3.1-21.2 2.5-.3-.3.1-3.1 1-6.4 1.9-7.5 1.9-20.3-.1-27.9-2.2-8.6-7.4-17.8-10.8-19-4-1.4-5.9 1.4-5.2 7.5.3 2.5.9 14 1.2 25.6l.6 21.1-6.3-.9c-7.4-1-19.1-3.7-20.1-4.7-.4-.4.1-3 1.2-5.9 4.9-12.8 4.7-25.4-.5-36.9-2.4-5.4-5.2-7.7-8-6.7-2.7 1.1-3.5 4.9-3.6 16.7 0 11.4-1.2 26.4-2.2 27.3-.4.4-14.1-5.9-15.5-7.1-.1-.1.9-3.6 2.3-7.8 2.8-8.3 3.4-20 1.4-27.1-1.1-3.8-4.9-8.6-6.9-8.6-2.5 0-4.9 4.1-5.5 9.7-1.1 9.9-3.6 23.8-4.4 24.6-.6.6-21.1-13.5-21.1-14.5 0-.2 1.4-3 3-6.2 4.3-8.5 3.9-17-1.1-19.6-3.1-1.7-6.5 1.1-10.7 8.8-1.9 3.4-3.8 6.2-4.3 6.2s-6.2-4.2-12.7-9.3c-6.4-5.1-13.3-10.4-15.3-11.9-6.6-4.9-24-14.9-28.2-16.3-2.3-.7-6.4-2.2-9.2-3.3-8.1-3.3-26.8-8.8-45-13.3-42.5-10.5-63.3-19.5-88.7-38.7-37.1-27.9-68.9-75.8-77.2-116.4-5.3-25.7-5.7-42.1-1.6-58.1 7.6-30.1 34.6-55.8 71.2-68.1 12-4.1 21.3-5.8 39.8-7.5.8 0 6.4.4 12.3.9z"/>
      <path d="M141 152.5c-7.9 1.7-11.3 3.2-10.5 4.4.9 1.6 10.2 3.1 18.9 3.1 4.5 0 10.9.5 14.2 1.1 6.3 1.2 21.4 6.6 21.4 7.7 0 .4-2.8 2.2-6.3 3.9-13.2 6.9-25.3 19.1-31.8 32.1-1.8 3.7-3.4 6.9-3.6 7.1-.5.8-13.9-9.5-34.7-26.8-5.7-4.8-7.1-5.1-6.1-1.4 1.9 8.1 16.5 25.1 30.2 35.2 4 2.9 7 5.7 6.8 6.1-.8 1.3-3.5 26.1-3.5 32.1 0 18.8 4.1 15.3 10-8.6 2.1-8.6 4-15.9 4.2-16.1.3-.2 5.9 3.7 12.5 8.6 10.6 7.8 28 19.4 30.4 20.2.5.2.2 3.7-.7 8-1.8 8.7-1 15.4 1.9 17.2 2.4 1.5 4.7-1.3 8.4-10.4 1.5-3.8 3.1-7 3.5-7 .7 0 24.4 12.8 36.3 19.7l6.1 3.5-.4 9.8c-.5 10.9.8 16.4 4.1 18.1 1.7 1 2.4.8 3.8-1 1.6-1.9 4.9-13.8 4.9-17.5 0-.9.2-1.6.3-1.6.4 0 46 22.1 46.5 22.5.1.1-.7 2.8-1.8 6-4.2 12.2-1.3 14 7.2 4.5l5.4-5.9 5.5 3.6c3 1.9 9.9 5.8 15.3 8.6 9.8 5 28.4 18.2 41.4 29.4l6.7 5.8-.3 10.6c-.4 11.4.9 18.9 3.4 18.9 2 0 5-5.3 6.5-11.4.6-2.8 1.4-5.6 1.8-6.3.4-.8 3.9 1.6 10.1 6.9 14.9 12.9 41.5 29.6 43.6 27.5 1.2-1.2-3.2-5.6-16.1-16.4-7.1-5.9-17.7-15.3-23.4-20.8l-10.4-10.1 2.6-4.9c2.8-5.6 15.6-23.9 21-30l3.5-4 4.3 4.9c17.4 19.6 30.8 42.1 32.9 55.2.6 3.7 1.6 7.6 2.2 8.8 1.1 2 1.1 2 2.1-.4.6-1.4 1-6.1 1.1-10.5 0-13.7-7.1-29.3-24.4-53.5-5.9-8.2-8.6-12.8-8-13.6 2.1-2.4 11-6.4 19.3-8.5 4.8-1.2 9.9-3.1 11.3-4.2 2.4-1.8 2.4-2.1.9-3.6-1.3-1.3-3.7-1.6-12.3-1.5-11.2.1-19.6 2.2-27.1 6.5l-3.3 2-5.2-3.9c-2.8-2.1-7.1-5.1-9.6-6.7-4.6-2.9-27.9-13.5-36.5-16.6-2.7-.9-5.1-2.4-5.3-3.2-.2-.8 2.6-2.7 7.7-5.1 4.4-2 8.5-4.3 9.1-5.1.6-.7 1-3.1.8-5.2l-.3-3.7-4.9.3c-5.4.3-8 1.2-21.2 6.9l-9.1 3.9-15.9-7.2c-14.6-6.6-31-15.2-35.9-18.8-1.9-1.4-1.8-1.6 1.8-5.7 2.1-2.3 3.6-4.7 3.4-5.3-.5-1.6-7.9-1.1-12.4.8-3.5 1.5-3.6 1.5-8.2-2.4-2.5-2.2-9.5-9-15.6-15.1-10-10.2-10.8-11.3-9.1-12.3 7.7-4.8 11.1-7.4 11.4-9 .3-1.4-.4-1.7-4.5-1.7-2.6 0-7.5.7-10.7 1.4l-6 1.4-9.5-9c-10.6-10-21.3-19-27.9-23.3l-4.3-2.8 3.6-2.9c4.8-4 4.6-5.8-.7-5.7-2.4 0-6.1.6-8.3 1.3-3.7 1.2-4.4 1.1-9.7-1.6-10.9-5.3-22.1-8-35.8-8.4-8.6-.2-14.6.1-19 1.1zm65.6 29.5c12.2 9.2 17.7 13.9 24.2 21l6 6.6-7.1 4.4c-9 5.5-18.3 14.9-24.6 24.5-2.7 4.1-5.1 8-5.3 8.7-.5 1.5-13.9-5.9-32.3-17.9-7.1-4.7-13.1-8.7-13.3-8.8-.2-.2.9-2.7 2.3-5.7 4.2-8.2 12.9-19.1 20.3-25.1 7-5.7 18.9-13.5 20.8-13.6.6-.1 4.6 2.6 9 5.9zm61.3 61l8.6 8.5-6.6 6.5c-3.6 3.6-8.6 9.5-11 13.2l-4.5 6.6-20.4-11c-11.3-6.1-20.7-11.2-20.8-11.4-.2-.1 1.3-2.9 3.5-6.1 5-7.6 16.3-19.5 23.7-25l6-4.4 6.5 7.3c3.5 4 10.3 11.1 15 15.8zm29.3 23.4c7.6 4.9 29.7 16.5 37.5 19.5l3.2 1.3-4.7 3.7c-4.6 3.7-12.2 11.3-16 16l-1.9 2.5-8.9-4.3c-4.9-2.3-15.3-7.6-23.2-11.7l-14.2-7.5 3-5.7c2.7-5.2 14.6-19.2 16.3-19.2.3 0 4.4 2.4 8.9 5.4zm68.3 31.6c3.7 1.6 7.3 3 8.2 3 .8 0 5.2 1.8 9.9 4s8.9 4 9.4 4c1 0 14.8 8.1 20.8 12.2l4.3 2.9-3.1 3.7c-7.8 9.3-16.3 21.3-19.7 27.9l-3.7 7.1-6.6-6.2c-9.2-8.6-19.4-16.7-26.5-21-3.3-2-9.8-6.3-14.4-9.5-4.6-3.3-9.9-6.8-11.7-7.7-1.9-1-3.4-2.2-3.4-2.6 0-2.5 24.3-20.7 27.7-20.8 1.1 0 5.1 1.3 8.8 3z"/>
    </g>
  </symbol>
  <symbol viewBox="0 0 624 624" id="allergens-sesame">
    <g fill="currentColor">
      <path d="M371.9 90.4c-7.8 2.1-13 7.4-16.4 17.1-2.7 7.3-3.2 29.9-1.1 44.1 4.3 29.5 15.6 63.5 35.1 105.4 12.3 26.5 20.1 40.6 29.1 52 2.3 3 8.3 10.9 13.3 17.5 17.3 23.1 33.1 38.9 51.1 51 17.7 11.9 30.2 15.9 47.4 15.4 9.9-.4 11.8-.7 16.6-3.2 29.6-15.4 49.7-39.7 55.5-67.2 7.2-34.1-7.3-80.8-37.3-120.8-7.4-9.8-21.2-24.7-22.9-24.7-.5 0-7.1-6.1-14.7-13.6-7.7-7.4-15.3-14.2-17-15.1-1.7-.9-4.7-2.9-6.8-4.4-2-1.6-13.9-9.8-26.5-18.2-33-22.1-53-31.7-73.1-35.2-10.1-1.8-25.9-1.8-32.3-.1zm33.3 29.7c22 4.4 50.8 19.2 78.3 40.1 5.5 4.1 11.2 8.6 12.7 9.9 1.4 1.3 3.9 3.5 5.5 4.8 4.7 3.9 16.4 14.5 22.7 20.5 3.2 3.1 6.2 5.6 6.5 5.6 1.1 0 20.3 27.9 29.5 42.7 10.4 16.7 17 29.4 20.2 38.8 3.8 11 4 25.7.6 35.7-4.5 12.9-15.8 26.8-30 36.6l-6.2 4.3-.1-5.8c0-7.9-1.7-12.5-5-13.7-1.5-.5-3.4-.6-4.3-.3-2.6 1-6.6 10.9-7.4 17.9l-.7 6.3-4-.3c-2.2-.2-5.4-.8-7.1-1.3l-3.1-.9.5-7.8c.5-8.8-1.1-13.5-5.3-15.4-1.9-.9-3-.7-5 .6-2.8 1.8-5.5 7.1-5.5 10.5 0 4.5-3.1 3.1-15.4-7.3l-2.9-2.4 4.6-9.2c5.1-10 5.6-12.6 2.9-16-2.7-3.3-6.6-1.7-14 5.6l-6.2 6.2-5.6-6.5-5.5-6.6 2.6-2.7c5.1-5.3 5.3-13.4.5-16-2.5-1.4-5.4-.6-9.8 2.7-1.8 1.4-3.5 2.3-3.6 2.2-.2-.2-3.3-4.7-6.9-9.9-3.7-5.2-8.7-12.2-11.1-15.5-6.1-8.4-10.5-16.5-24.3-44-20.5-41.2-28.5-65-28.7-85-.1-8.6.2-10.7 2.2-14.7 4.6-9.3 14.2-12.6 28.4-9.7z"/>
      <path d="M414 160.3c0 2.3 7.5 16.9 14.8 28.7 3.9 6.3 11.2 16.7 16.3 23 5 6.3 10.5 13.5 12.2 15.9 4.7 6.9 12.6 17.2 17.3 22.6 2.4 2.7 7.6 8.8 11.6 13.5 11.7 13.6 41.7 44.9 48.6 50.6 10.3 8.5 13.9 7.6 8.8-2.2-4.8-9.1-35.4-48.2-63.1-80.4-9.2-10.9-16.4-19.7-22.5-27.8-6.3-8.5-33.9-41-36.6-43.1-3-2.3-7.4-2.8-7.4-.8zM67.9 135.4c-18.5 3.3-32.5 9.5-42.3 18.7C3 175.2 5.5 196.7 34.2 226c9.8 10.1 25.6 23.3 32.8 27.5 2.8 1.6 11.3 6.9 18.8 11.6 7.5 4.8 22.9 13.8 34.2 20.1 11.3 6.3 26.4 14.8 33.5 18.8 82.6 46.6 150.2 47.8 185.6 3.3 6.5-8.2 9-14.7 10.9-28.2 6.4-46.8-39.7-92.3-121.5-119.7-22-7.4-48.8-14.5-68.5-18.3-9.1-1.8-19.2-3.9-22.5-4.7-8.6-2.2-59-2.9-69.6-1zm77.1 35c20 3.6 52.9 11.1 66.9 15.2 26.2 7.7 56.4 21.1 74.6 33.1 12.6 8.3 28.7 24.2 33.2 32.8 5.1 9.7 6.6 16.5 6.1 26.9-.6 11-1.8 13.5-9.7 20.9-11.3 10.4-26.5 15.7-45 15.7-9.6 0-27.6-2.1-28.8-3.4-.3-.3-.7-2.8-.9-5.6-.7-8.5-4.1-13.4-9-12.8-3.5.4-6.4 4.4-7.1 9.7-.3 2.5-1 4-1.7 3.8-.6-.2-4.1-1.4-7.7-2.7l-6.6-2.3.5-6.2c.6-8.3-.3-12.8-3.4-16.5-5.2-6.1-10.8-2.5-12.7 8.4-.6 3.6-1.5 6.6-1.9 6.6-1.5 0-20.3-9.8-34-17.6-36.1-20.7-76.4-50.4-104.7-77-10.5-9.9-15.1-15.6-15.1-18.9 0-5.2 9.2-9.4 25.5-11.4 14.6-1.8 15.9-1.9 42-1.6 21.8.3 26.9.6 39.5 2.9z"/>
      <path d="M98.5 192c-1.7 2.7 6.1 7.1 29.7 16.9 24.9 10.3 72.6 31 92.8 40.3 32.2 14.8 39.8 17.9 45.5 18.5 4.6.5 5.6.3 6.1-1.1 1.4-3.7-12-14.1-30.8-24-4.6-2.4-11.5-6.2-15.4-8.5-8.3-4.8-33.5-16.6-47.9-22.3-34.5-13.8-77.2-24.3-80-19.8zM348 379.6c-10.5.5-26.4 3-47.5 7.4-9.9 2.1-24.5 4.5-32.5 5.4-72.4 8.2-110.9 23.5-122.9 48.9-7.7 16.4-6.2 28.8 5 39.1 3.2 3 5.9 5.9 5.9 6.4s1 1.6 2.3 2.5c1.2.8 4.6 3.5 7.6 6 2.9 2.5 8.7 6.2 12.9 8.2 4.3 2.1 10.3 5.3 13.4 7.2 3.2 1.9 6.5 3.6 7.5 3.8 1 .2 5.2 1.9 9.3 3.8 59.7 27.4 135 31.6 192 10.7 11.7-4.2 28.9-12.8 38.5-19.1C456 499 470 482.1 475 467c4.4-13 3.5-30.9-2-43.9-2.4-5.4-13.5-16.9-22.2-22.9-12.2-8.4-31.8-15.8-49.8-18.7-9.4-1.5-38.3-2.6-53-1.9zm34.1 27.4c27.4 2.8 48.9 11.8 62.6 26.3 6.4 6.7 7.8 11.1 7.8 24.2 0 8.6-.4 10.6-2.4 14.5-3.2 6.1-6.8 10.7-10.3 13.2l-3 2.1-5.6-5.6c-3.2-3-6.7-6-7.9-6.6-3.5-1.8-8.8-1.3-10.8.9-3 3.3-1.2 8.4 5 14.6 6.1 6.1 6.4 5.6-5.1 9.7l-7.1 2.6-1.4-2.6c-2.4-4.4-11.7-12.2-16.1-13.4-10.7-2.8-13.3 6.3-4.3 15.5 2.4 2.5 4.1 4.7 3.7 5-.9.5-17.5 3.3-29.2 4.8-5.3.7-20.5 1.2-34.5 1.2-21.7.1-26.7-.2-37.8-2.2-17.8-3.2-35.8-8.3-51.7-14.6-7.4-3-14.6-5.7-16-6.1-4.9-1.4-11.6-5.5-21.5-12.9-5.5-4.1-12.3-8.6-15.1-10-6.7-3.2-11.4-8.6-11.4-13.1 0-7.3 9.3-14 29.8-21.7 5.9-2.2 12.4-4.6 14.5-5.4 2.2-.8 6.4-1.9 9.5-2.3 3.2-.5 8.2-1.6 11.2-2.5 3-.9 9.1-2 13.6-2.6 4.4-.6 17.2-2.9 28.5-5.2 11.2-2.3 23.3-4.3 26.9-4.5 3.6-.2 13.3-1 21.5-1.8 8.3-.9 16.6-1.7 18.5-1.9 8.4-.7 28.6-.5 38.1.4z"/>
      <path d="M378 450c-16.9 3.9-44 6.5-78 7.5-24.5.7-33.1 1.9-35.7 4.7-1.7 1.9-1.7 2 .2 3.4 2.7 2 7 3 22.6 5.6 18.4 3 54 3.3 66.9.4 15.8-3.4 37.5-12.3 42.1-17.2 2-2.1 2.1-2.6.8-3.9-2.4-2.4-9.7-2.6-18.9-.5z"/>
    </g>
  </symbol>
  <symbol viewBox="0 0 624 624" id="allergens-soy">
    <g fill="currentColor">
      <path d="M199 99.1c-24.5 3-42.4 7.5-57.6 14.4-33.1 15.1-54.1 47.9-48.3 75.7 1.5 7 12.7 31.5 18.3 39.7 14.6 21.5 42.1 37.6 84.6 49.5 30.9 8.6 63.6 13.3 85.2 12.2 20.6-1 38.8-5 54.3-11.9 24-10.6 41.5-27.5 53-51.2 7.7-15.9 9.9-24.4 10-38.5 0-9.2-.5-12.9-2.3-18.7-4.3-13.8-17-29.1-32.6-39.1-20.1-12.9-50.7-24.1-77.1-28.3-3.8-.6-11.3-1.7-16.5-2.5-11.5-1.8-60.1-2.7-71-1.3zm61.6 23.9c50 4 92.5 22.3 107.8 46.4 6.3 9.8 7.9 15.8 7.9 28.6 0 12.6-1.6 19-7.5 30.1-10.4 19.7-34.8 34.2-66.6 39.6-10.4 1.7-47.3 2.5-52.5 1l-2.7-.7 2.1-3c2.4-3.2 2.9-9.3 1-12.8-.8-1.6-2.1-2.2-4.5-2.2-2.9 0-3.8.7-6.9 5.4-2 3-3.9 6.6-4.3 8-.4 1.7-1.3 2.6-2.6 2.6-2.6 0-15.8-3-15.8-3.6 0-.3 1.1-2 2.5-3.8 3.7-4.9 5.5-10 5.5-15.8 0-6.3-2-9.8-5.5-9.8-2.2 0-3.3 1.7-9 13l-6.5 12.9-5.2-1.8c-7.8-2.7-13.8-5.3-13.8-5.8 0-.3 1.5-2.3 3.4-4.5 7.2-8.4 10.7-21 7.2-26.3-2.9-4.4-5.5-3-10.5 5.5-7 12-11.1 18.1-12.6 18.6-.7.3-4.8-1.4-9-3.9l-7.6-4.4 2.5-3c5.6-6.7 8.6-18.9 5.4-22.1-2.2-2.2-5.6-1.3-8.1 2-1.3 1.8-4.3 6-6.7 9.2l-4.3 5.9-6.9-7.1-7-7.1 2.4-3.3c3-4.3 3.2-11.3.4-13.4-2.7-2-4-1.8-7.4 1.1-1.7 1.4-3.3 2.5-3.6 2.5-1.2 0-4.8-8.5-6.7-15.7-2.6-10.5-2.5-17.2.6-23.6 9.9-21 38.6-35.1 78.4-38.7 13.1-1.1 52.2-1.1 66.7 0z"/>
      <path d="M269.1 167.6c-3.6.7-7.2 2-8 2.9-1.4 1.3-1.4 1.7.1 3.1 1.3 1.3 4.8 1.8 16.5 2.4 9.4.5 16.4 1.4 19.3 2.4 16.1 5.9 36 22.6 36 30.1 0 3.4-2 4.4-10.1 5.4-8.7 1.1-19.5-.6-44.5-6.9-15.1-3.8-24.4-5-24.4-3.1 0 4.9 46 22.7 61.5 23.8C334 229 347 221 347 208.4c0-14.6-23.3-35.7-45.3-40.9-7.7-1.8-24.1-1.8-32.6.1zM156.5 292.1c-18.3 1.9-39.3 7.2-65.5 16.4-16.9 5.9-22.2 9.3-39.3 24.5-22.2 19.9-31.2 43.3-24.6 64.6 6.1 19.9 19.5 37 37.4 47.7 4.3 2.6 8.1 4.7 8.5 4.7.4 0 4 1.4 7.8 3 7.3 3.1 32.3 9.3 42.2 10.4 11.9 1.4 66.2.3 73.3-1.5 2-.5 6.5-1.4 10-1.8 9.8-1.3 26.8-5.1 29.6-6.6 1.4-.7 7.7-2.9 13.8-5 15.7-5.1 22.7-10.2 35.8-26 5.7-7 11.8-19 13.5-26.8.5-2.6 1.9-7 3-9.8 2.7-7.2 3.4-16.6 2.1-28.8-1.6-14.9-5.3-22.2-17.1-33.5-7.1-6.7-11-9.4-19.7-13.9-24.5-12.5-55.5-18.9-89.8-18.6-7.1.1-16.6.5-21 1zm49.8 17.4c27.6 3.6 50.5 14.2 63 29.3 5.6 6.7 8.7 12.9 11.8 23.5 2.1 7 2.2 8.2 1 13.5-.7 3.1-1.9 8.8-2.8 12.6-2.1 10-7.1 19.1-14 25.7-11.3 10.9-30.5 18.2-70.3 26.8-22.1 4.7-59.2 6.8-75.5 4.2-35.5-5.8-58.8-23-68-50.5-2.5-7.3-2.6-8.4-1.5-14.3 1.4-8.5 3.4-13.3 8.8-21.8 16.4-25.6 53-43.4 102.7-49.8 7.9-1 34.5-.6 44.8.8z"/>
      <path d="M160.5 365.6c-8.6.7-25.7 3.5-34 5.6-12.9 3.2-19.3 5.6-26.1 9.9-7 4.4-10.1 8-11 12.8-.6 2.8-.1 3.7 3.4 7 9.4 8.9 23.6 12.3 52.7 12.5 17.9.1 23.8-.9 34.3-5.7 5.4-2.5 14.2-10.4 16.7-15.1 3.4-6.2-.1-6-8.7.5-9.4 7-14.1 8.3-31.3 8.3-20.5 0-43.2-3.2-48-6.8-1.9-1.4-1.5-1.7 6.5-5.5 8.1-3.9 30.3-10.7 42-13 3-.6 9.4-1.5 14.2-2 9.3-1.1 12.8-2.3 12.8-4.6 0-2.7-12.2-4.7-23.5-3.9zM393 337.1c-7.9 1.2-23.3 6.2-26.9 8.8-1.4 1-4.6 2.9-7.1 4.1-13.6 6.8-29.4 27.4-36.2 47-5.5 16.3 0 37.5 15.3 58 6.1 8.2 16.9 18.9 24.4 24 11.6 8 35.6 16.8 56.4 20.6 11.4 2.2 42.2 3 54.7 1.5 19-2.2 40.3-8 47.3-12.7 8.7-5.9 19.3-16.2 23.6-22.9 2.4-3.8 3.3-21.5 1.6-32.4-3.9-25-22.3-49-52.7-68.7-17.6-11.4-41.9-21.7-59.9-25.5-11.6-2.4-31-3.3-40.5-1.8zm53.5 24.3c49.5 16.7 88.1 64.3 75 92.3-2.5 5.5-4 6.5-4.9 3.5-1.1-3.3-6.4-8.2-9-8.2-3.7 0-5 3.1-4.2 10.4.4 3.4 1 7.1 1.2 8.2.5 1.9-.2 2.5-5.2 4.4-3.2 1.2-7.1 2.4-8.6 2.7-2.7.5-2.8.4-2.2-2.5 1.5-7.4-3.2-15.6-8.5-15-3.6.4-5.1 4.1-5.1 13s.8 8.2-11.5 9.3l-7 .6v-6.5c0-6.8-2-10.6-5.6-10.6-2.6 0-6.5 5.3-8 11l-1.3 5h-4.2c-2.3 0-5.6-.3-7.3-.6-3.1-.6-3.1-.7-1.6-3.1 1-1.5 1.5-4 1.3-7.1-.2-3.7-.8-4.9-2.6-5.8-3.7-1.8-6.1-.6-10.9 5.7l-4.5 5.8-6.9-2.5c-36.5-13.2-59.2-33.5-60.7-54.4-.4-5.6 0-7.7 2.7-14.5 7.3-18.9 17.7-31.3 32.1-38.3 12.4-6 19.2-7.2 39.5-6.8 16.6.3 17.3.4 28 4z"/>
      <path d="M395.9 373.8c-13.8 8.8-24.9 31.5-23.7 48.3.4 5.4.8 6.6 3.6 9 3.6 3.2 7.6 3.7 10.9 1.4 1.2-.9 6.1-7 10.9-13.8 6.3-8.8 13-16.4 24.1-27.3 8.4-8.3 15.3-15.6 15.3-16.2 0-1.9-5-1.4-11 1.1-12.5 5.2-27.7 17.5-36.2 29.4-1.7 2.4-3.3 4.2-3.5 4-.6-.7 2.7-11.9 4.8-16 1.2-2.3 4.3-7.4 6.9-11.2 8-11.8 7.3-14.6-2.1-8.7z"/>
    </g>
  </symbol>
  <symbol viewBox="0 0 624 624" id="allergens-sulphurdioxide">
    <g fill="currentColor">
      <path d="M409.5 67.1c-7.7.4-19.2 1.3-25.5 1.9-53.2 5.1-57 5.3-119.5 5.6-33.5.1-76 .5-94.3.8-44.4.7-42.2-.5-42.2 23.9 0 17.9-.7 20.3-7.8 26.9-2.2 2.1-4.3 4.6-4.7 5.7-.9 2.9 2 7.7 6.5 10.7 2.2 1.5 4 3 4 3.5 0 .4.9 1.1 2 1.4 1.1.4 2.7 2 3.6 3.7 1.4 2.7 1.5 8.9 1 54.2-.3 28.1-.9 54.2-1.5 58.1-1.1 7.9-1.6 250.1-.5 260.7l.6 6.5 22.7.7c12.4.4 33.2.4 46.1.1 50-1.2 90.4-2.5 111-3.6 12.7-.7 36.1-1 57.1-.6 30.1.4 36 .7 38.7 2.1 4 2.1 8.1 2 16.7-.4 6.5-1.7 7.4-2.4 15-10.2 4.4-4.6 11.9-11.8 16.6-16 4.7-4.2 9.4-9.2 10.3-11.1 1.4-3.1 1.6-10.6 1.9-69.4.2-70.3-.1-77.4-4.9-106.7-2.5-15.6-11.2-60.5-11.9-61.6-.5-.8-3.1-14.1-3.9-20-.4-2.5-1.1-6.8-1.6-9.5-.6-2.8-1.4-18.5-1.9-35-1.1-34.6-.7-37.3 7.6-54.5 2.5-5.2 4.5-10.4 4.4-11.5-.4-3.1-3.1-5.5-9.7-8.5l-6.1-2.8-.6-6.3c-.4-3.5-.9-12.3-1.3-19.4-1-20.3-1.8-20.9-27.9-19.4zm3.5 27.7c0 15.1 3.8 24.9 12 31l3.8 2.7-4.4 7.5c-7.1 12.2-7.8 15.2-7 30.9.4 7.5 1.1 17.6 1.6 22.6.7 6.7.6 11.8-.5 20-.7 6-1.6 20.7-2 32.5-.5 20.1-1.5 29.5-5.1 48.1-1.3 6.7-1.9 14.6-3.8 49.4-.8 13.8-3.4 104.1-3.6 122.2v4.2l-4.9-5.2c-3.5-3.7-6.2-5.6-9.2-6.4-7.3-1.9-11.1 1.2-7.4 6.1.8 1.1 1.5 2.7 1.5 3.6 0 1.9 8.1 9.8 15.3 15l4.7 3.3-.1 9.6c-.1 5.3-.4 10.8-.8 12.3-.6 2.6-.9 2.4-8.1-6.3-4.1-4.9-7.8-9.6-8.3-10.4-.4-.8-3.1-2.9-6-4.8-11.1-7.1-10.5-6.9-14.3-5.7-2.3.8-3.4 1.8-3.4 3.1 0 1.2 5.4 8 12.6 16l12.6 14-13.3-.7c-12.8-.7-13.4-.8-15.3-3.3-4.4-5.8-11.4-11.8-14.5-12.4-8-1.6-10 4.9-3.7 12 1.1 1.3 1.7 2.5 1.4 2.8-.3.3-19.6 1-42.9 1.5-23.3.6-56.8 1.4-74.4 2-17.6.5-40.8 1-51.6 1h-19.5l-1.3-110.8-1.2-110.7 2.6-28.9c2.4-26.8 2.6-32.1 2.3-73-.3-50.4.1-48.1-9.3-55.4l-2.6-2 3-4.7c3.8-6 5.1-12.2 5.1-23.9v-9.3l23.7-.8c13.1-.4 51.5-.6 85.3-.4 64.6.3 69.4.1 119.5-5 9.9-1 21-1.9 24.8-2l6.7-.1v8.8zm29 248.7c.6 5.5 1.2 16.3 1.3 24 .3 23.5-1.6 119.5-2.4 119.5-.4 0-3.5 2.4-7 5.2l-6.2 5.2.7-41.2c1-64.9 3-118.8 5.3-147.2l.6-8.5 3.3 16.5c1.8 9.1 3.8 21 4.4 26.5z"/>
      <path d="M238.5 127c-26 1-51 3.9-61.2 7.2-6.4 2-8.1 4.1-4.2 5.3 1.2.4 29.9.8 63.8 1 33.9.2 66.1.8 71.6 1.4 14.6 1.5 47 1.3 62.2-.4 23.8-2.6 42.8-6.9 42.8-9.5 0-2.6-5.7-3.1-19.5-1.9-13.8 1.2-62.6.1-88.5-2-17.1-1.5-46.2-1.9-67-1.1zM281.6 233.2c-2.6.5-9.6 2.9-15.5 5.4-6.9 3-16.5 6-27.6 8.6-9.3 2.1-22.2 5.4-28.5 7.3-6.3 1.9-14 4.1-17 4.9-5.3 1.5-23 12.8-23 14.8 0 1.9 7.5.6 14.2-2.6 4-1.8 9.6-3.7 12.3-4 2.8-.4 12.9-2.2 22.5-4.1 9.6-1.8 20-3.6 23-4 11.5-1.3 16.8-2.8 27.5-7.8 10.7-4.9 11.3-5 19.6-4.9 14.1.2 20.3 1.6 32.4 7.6 24.9 12.4 32.1 14.5 52.3 15.3 11 .4 11.6.3 17.8-2.6 3.5-1.6 6.4-3.2 6.4-3.5 0-.3-5.3-.4-11.7-.4-6.5.1-13.6-.2-15.8-.8-2.2-.6-15.7-7-30-14.3-18.5-9.5-27.9-13.7-32.5-14.7-7.3-1.5-19-1.6-26.4-.2zM197 304.5c-14.4 4.1-22 13.8-22 28.1 0 6 2.1 12.5 5.4 16.9 3.6 4.7 11.2 8.2 25.4 11.9 7.1 1.8 13.8 3.9 15 4.5 5.5 2.9 6.9 10.4 2.8 14.6-6.5 6.5-23.6 5.7-40-1.9l-7.6-3.5V395.8l7.8 2c26.1 7 47.7 5.1 58.2-5.1 8.9-8.6 10.7-27 3.7-37.4-4.3-6.4-11.9-10.1-27.9-13.7-6.8-1.5-13.9-3.5-15.8-4.4-6.2-3-6.6-10.2-.8-14.5 5.7-4.2 24.2-3.1 38.1 2.4l4.7 1.9v-19.8l-8.7-1.7c-12.8-2.4-31.4-2.9-38.3-1zM290.3 304.5c-21.9 4.8-35.3 22.9-35.3 48 0 30.3 19 49.5 49 49.5s49-19.2 49-49.5c0-19.9-8.4-35.6-23-43.4-10.7-5.7-26.2-7.5-39.7-4.6zm21.1 16.6c5.4 1.5 11.9 8.3 14.2 15 2.6 7.5 2.6 25.2 0 32.8-7.4 21.5-35.7 21.5-43.2 0-2.7-7.6-2.6-25.3 0-32.8 2.2-6.4 8.8-13.5 13.8-15 4.5-1.3 10.5-1.3 15.2 0zM363 368.7c-1.4.2-4 .9-5.7 1.4-3.2 1-3.3 1.2-3.3 6.5v5.4l4.1-2c8.4-4.4 17.3-3.4 19.3 2.1 1.7 4.9-.1 7.5-11.9 17.9L354 410.2v9.8h37v-10h-22l8-7c11.7-10.4 13.5-13.1 13.5-20.2 0-5.6-.2-6.2-3.7-9.3-5.2-4.9-13.6-6.5-23.8-4.8z"/>
    </g>
  </symbol>
  <symbol viewBox="0 0 624 624" id="allergens-treenut">
    <g fill="currentColor">
      <path d="M219 84.1c-7.7.9-12.3 1.9-25 5.2-5.2 1.3-12.9 3.2-17 4.1-4.1 1-10.2 2.8-13.5 4.1-3.3 1.3-8.9 3.4-12.5 4.6-9 3-29.4 12.4-41.8 19.2-5.7 3.1-14.5 7.5-19.5 9.8C64 142.9 57.2 152 53.5 179.6c-2.4 17.9-5 30-11 51.4-6 21.3-9.3 36.8-9.5 44.5-.1 8.7 1.7 32.8 3 38.5 2 9.3 7.1 28.2 9.2 34.5 2 5.9 10.6 23 15.5 31 1.4 2.2 5.4 9.2 9 15.5 6.9 11.9 10.8 17.2 30.2 40 25.8 30.5 50.4 55.3 62 62.7 3.1 2 7 4.7 8.7 6.2 21.1 17.8 61.5 37.5 92.3 45 24.1 5.9 29.5 6.5 58.1 6.6 17.5 0 29.2-.5 34.5-1.4 26.9-4.4 60-14.3 77.9-23.3 12.3-6.1 32.3-19.2 43.1-28.3 4.4-3.6 13.6-11.9 20.5-18.4 6.9-6.4 17.9-16.5 24.5-22.2 16.3-14.3 25.6-23.9 32.5-33.5 6.6-9.3 7.2-10.8 9.9-26.9 8.3-48.9 10.6-80.1 8-109-2.4-27.9-9.8-49.7-24.3-71.5-7.6-11.3-43.3-48-56.1-57.7-22.6-17-50.8-33.5-95.1-55.6-21.6-10.9-37.3-16.3-60.7-21.2L318.9 83l-46.7.1c-25.7.1-49.6.5-53.2 1zm88 28.3c45.9 6.4 76.1 16.5 116.5 38.8 16.5 9.1 58.4 37.4 65.8 44.4 2.3 2.2 6.7 5.9 9.7 8.1 7.5 5.7 21.8 20.5 26.7 27.8 11.5 17.1 19.3 39.2 22.3 63.2 1.5 11.3 1.5 45.6 0 59.8-1 9.8-5.1 40.1-6.6 48-.9 5-10.1 15.2-24.1 27-7.3 6-20.5 18.5-29.5 27.6-16.7 16.9-24.8 23.6-41.4 34.1l-9.4 5.9-5-5.1c-6.1-6.2-10.1-6.7-12.7-1.5-.8 1.4-.7 3.5.3 7 2.2 8.2 2.4 7.9-9.3 12.8-16.5 6.9-15 7.1-15.5-2-.9-15.6-11.1-30.4-16.1-23.3-1.1 1.6-1.3 5.5-.9 19.3l.5 17.4-6.4 1.6c-3.5.9-8.8 1.9-11.8 2.3-5.4.7-5.4.7-4.7-1.7 2-7.3 2.8-13.3 2.2-18.2-1.5-11.5-8.4-19.2-12.6-14-.9 1.2-2 4.8-2.4 8-.3 3.2-1.6 10.8-2.7 16.9l-2.1 11.1-5.1.7c-2.9.3-7.5.6-10.2.6h-5v-9.4c0-11-1.8-14.9-7.3-15.4-3.9-.4-5.5 1.9-7.6 11.3-.9 3.8-1.8 8.1-2.2 9.4-.5 2.2-.8 2.3-6.2 1.7-3.1-.3-9.2-1.3-13.4-2.2l-7.8-1.7 3.1-3.5c4.5-5.1 6.2-9.8 5.7-15.4-.8-7.4-4.7-10.5-9.8-7.8-1 .6-4.5 5.6-7.6 11.3-3.1 5.6-5.9 10.4-6.1 10.6-.4.6-13.9-3.7-17.5-5.5l-2.7-1.4 2.5-3.8c2-2.9 2.5-4.5 2.1-7.6-.6-4.6-2.1-6.1-6.4-6.9-2.8-.5-3.9 0-9.3 4.8-3.3 3-6.6 5.5-7.3 5.5-1.2 0-3.6-1.6-30.2-19.4-24.3-16.3-47.7-37.8-72.1-66.1-21.9-25.6-34.5-43.8-45.9-66.5-11.6-23.2-15.8-39.5-15.8-61.5.1-17.3 2.3-31 10-60.5 9.5-37.1 12.3-46.2 15.3-51.6 3.9-6.6 13.5-15.6 23-21.5 13-7.9 44.5-24.9 52.9-28.4 16-6.8 51.3-14.5 75.4-16.5 14.9-1.2 62.2-.4 74.7 1.4z"/>
      <path d="M284.5 163.6c-4.1 4.1 4.1 13.9 13.9 16.5 2.6.7 7.6.9 13.6.4 8.9-.6 9.8-.5 15.4 2.1 4.3 2 6.3 2.4 7.5 1.7 4.7-2.9 0-14.1-7.2-17.4-3.3-1.4-6.6-1.9-15.2-1.9-6.8 0-12.9-.6-15.9-1.5-6.3-1.9-10.1-1.9-12.1.1zM141.2 188.1c-8.3 1-13.2 2.7-13.2 4.4 0 1.8 6.1 3.5 12.5 3.5 14.8.1 38.2 4.1 67 11.6 9.9 2.5 19.7 5 21.8 5.5 5.8 1.4 23 6.3 35.7 10.2 39.2 12.1 54.5 19.2 99.5 46.2 15.5 9.3 28.1 16 45.5 24.4l9 4.5c1.4.8 8.4 4.2 15.5 7.6 31.5 15.1 49.6 31.8 64.6 59.8 6 11.3 8.6 15.2 10.1 15.2 2.5 0-4.1-22.5-9.4-32-8.4-14.8-16.5-24.3-31.1-36.8-8.3-7-23.8-17.2-26.3-17.2-.6 0-3.9-1.8-7.3-4s-9.5-5.7-13.4-7.6c-4-2-8.5-4.5-10-5.6-1.5-1.1-9.2-5.5-17-9.7-7.8-4.3-24.5-14.1-37.2-21.8-24.5-15-28.2-17-41.5-22.6-28.6-12.1-44.3-16.7-91.5-26.8-43.5-9.3-63.6-11.4-83.3-8.8zM401 215.8c-4.1 2-6.1 6.2-4.1 8.6.8.9 3.5 2.2 6.1 3 6.4 1.9 9.3 3.5 17.6 9.8 3.9 3 8.5 6 10.3 6.7 2.8 1.2 3.4 1.2 5.1-.4 2.5-2.3 2.5-3.1 0-9.9-5.7-15-23-23.9-35-17.8zM150.4 250.2c-1.1 1.1-1.4 2.6-1 4.2.7 2.9 7.3 8.4 11.7 9.6 3.4 1 32.1.6 33.8-.4 2.1-1.3 1.1-5.2-2.1-8.4-5.7-5.5-9.6-6.5-26.1-6.6-12.9-.2-15 0-16.3 1.6zM281 285.7c-4.9 1.5-9 3.8-9.6 5.5-.9 2.8 1.2 4.6 7.4 6.4 4.8 1.4 7 3.1 16.6 12.4 6.3 6.1 13.3 11.8 16.1 13.3 11.2 5.6 18.5 6 18.5 1 0-2-1.9-4.4-8.2-10.2-4.4-4.2-12.2-11.7-17.2-16.7-8.9-8.9-11.4-10.5-19.1-11.7-1.6-.2-3.7-.3-4.5 0zM193.2 310.2c-4.6 4.6 6.5 21.7 19.8 30.8 3 2 11.4 6.6 18.5 10.2 7.2 3.6 14.9 7.6 17.3 8.9 4.1 2.3 4.4 2.3 5.6.6 2.1-2.8.1-8.7-4.9-14.3-4.5-5.2-12.7-11.1-26.4-19-4.6-2.7-11.3-7.5-14.8-10.7-8.1-7.3-12.4-9.2-15.1-6.5zM373.8 338.1c-4.4 2.3-4.6 3-1.6 6.9 1.9 2.6 2.9 3 6.7 3 2.5 0 6.6 1 9.1 2.1s7.2 3.1 10.5 4.3c3.3 1.3 9.3 4 13.2 6 7.7 3.8 13 4.6 13.9 2.1 2.4-6.3-9.7-18.5-23.4-23.6-9.8-3.7-22.4-4-28.4-.8zM358.9 399.4c-.9 1.8-.7 3.7.6 8.2 4 13.9 10.3 23.1 19.8 29.2 12.4 8 24.3 9.5 39.2 5.3 7.6-2.2 8-2.3 11.1-.6 4.1 2.2 5.4 1.4 5.4-3.4 0-7.5-6.7-10.5-21-9.5-16.1 1.2-28.2-4.2-37.2-16.6-10.6-14.5-15.5-18-17.9-12.6z"/>
    </g>
  </symbol>
  <symbol viewBox="0 0 624 624" id="allergens-wheat">
    <g fill="currentColor">
      <path d="M278.8 20.1c-3.3 1.9-1.5 10.7 4 19.1 1.8 2.7 2.1 4.1 1.4 5.5-.5 1-2.2 6.7-3.7 12.8-2.3 8.9-2.8 13.4-2.9 23.5-.1 13.8 1.9 27 4.1 27 .7 0 1.3 1.1 1.3 2.5 0 2.3-.3 2.5-5 2.5-4.9 0-10.6-1.7-13.2-4-4.7-3.9-9.3-7-10.4-7-1.9 0-4.4 2.9-4.4 5 0 1.1 1.8 3.6 4.1 5.7 5.3 4.9 5.5 5.4 6.8 14.8 1.2 8.1 7.6 28.6 11.3 36 1.2 2.2 4 7 6.4 10.7l4.4 6.8h-3.3c-2.9 0-3.6-.6-6.6-5.6-4.2-7.1-8.3-11.8-12.7-14.5-4.5-2.7-8.4-1.5-8.4 2.7 0 3.6 7.3 17 13 24.2 4.3 5.3 4.8 6.4 6.3 15.2 2 11.9 6 25.6 9.2 32 2.9 5.7 3 6 1.1 6-.8 0-2.7-2.4-4.4-5.3-4.2-7.4-12.4-14.9-16-14.5-2.3.3-2.7.8-3 4-.4 4.6 6.3 18.4 12.8 26.3 1 1.2 2.3 6.5 3.4 13.9 2.1 14.6 5.3 25 10.6 33.9l4 6.8-3-.5c-1.7-.3-4.3-.9-5.9-1.2-1.9-.3-3.9-1.9-5.6-4.5-3.8-5.4-11.1-11.9-13.4-11.9-2.3 0-5.1 2.5-5.1 4.5s4.5 12.1 7.1 15.6c1.1 1.6 1.8 3.6 1.5 4.5-1 2.5 1.3 20.9 3.9 31 4 16 11.6 27.5 25.3 38.5 3.7 3 12.4 8.1 22.8 13.4 3.1 1.6 3.2 1.8 3.8 10.5 1.4 17.4-4.5 56.4-12.9 84.9-6 20.5-24.1 70.1-25.5 70.1-.9 0-13.2-23-20.1-37.4C255 509 243 479.6 243 477c0-.9 2.3-3.1 5.3-5 12.3-7.7 15.7-10.1 15.7-10.9 0-.4 1.7-2.5 3.9-4.7 6.6-6.6 9-12.3 10.1-23.2 2.6-26.4-1-51.1-8.2-56.5-2.4-1.8-2.9-1.8-5.6-.5l-2.9 1.5-.6-15.1c-.7-19.7-2.7-29.1-6.9-33-2.8-2.6-3.6-2.8-8-2.3-2.6.3-4.8.4-4.8.2 0-.3.7-4.7 1.6-9.7 1.2-7 1.5-12.7 1.1-23.1-.6-13.1-.5-14 1.8-19 4.5-9.5 2.4-17.9-3.9-16.3-2.3.6-8.6 8.2-8.6 10.4 0 .6-2.7 1.9-6.1 3.1-5.7 1.9-6 1.9-5.4.2 2.2-7.1 3.7-17.8 4.2-31.2l.6-15.6 4.8-4.8c5.5-5.5 8.9-11.6 8.9-16.2 0-3-2.6-6.3-5-6.3-2.6 0-8.3 5.4-12.1 11.4-5.2 8.2-5.6 8.6-8.4 8.6-3 0-3 0-.9-8.7 1.1-4.5 1.7-12.3 1.8-23.3.2-15.6 1.1-21.8 3.9-27.8 1.4-2.9.1-5.3-3.5-6.6-3.9-1.4-5.7-.1-8.2 5.6-2.2 4.9-2.8 5.5-7.7 7.2-6.5 2.3-21 9.7-24.6 12.6-4.4 3.4-6.6 2.7-9.1-3.1-5.8-13.7-12.7-24.3-22.6-34.7-5.5-5.6-11.2-11-12.8-12-2.6-1.5-2.8-2.1-2.8-7.7-.1-13.3-7-22-11.7-14.8-1.5 2.2-1.8 5.1-2 14.9-.1 12-.2 12.3-3.6 18.6-11.5 20.7-16.3 42.8-12.2 56.4.8 2.7 1.5 5 1.5 5.1 0 .5-8.5.3-10.5-.3-1.2-.3-3.3-2.9-5-6.2-3.3-6.4-11-14.7-15.1-16.2-3.6-1.4-6.3-.4-7 2.5-.7 2.9 5.3 14.7 10.8 20.9 2.6 3 3.4 4.6 2.7 5.7-.5.8-.9 2.7-.9 4.4 0 4.7 4.9 21.6 7.4 25.5 7 10.6 17.6 29.4 17.6 31.1 0 1.6-.7 1.9-4.3 1.9-3.5 0-5.1-.7-8.4-3.5-4.1-3.5-8.2-4.5-11.1-2.6-2.3 1.4 3.7 11.8 10.2 17.7 3.1 2.9 5.6 5.9 5.6 6.8 0 .9.7 2.8 1.7 4.2.9 1.4 2.6 5.4 3.8 8.8 2.9 8.4 9.8 20.3 15.3 26.6 5.2 6 4.9 7.5-.6 3.2-5.2-4.1-17.9-10.2-21.4-10.2-2.4 0-5.8 3-5.8 5.1 0 3.4 16.2 15.6 25.8 19.5 5.3 2.1 5.4 2.3 8.7 10.3 6.1 14.9 14.3 28.1 22.2 35.9l3.4 3.2-2.5.9c-4.2 1.7-9.6 2.4-9.6 1.3 0-1.2-9.8-10.8-13.6-13.3-4.9-3.2-10.4-2.1-10.4 2.1 0 2.8 7.9 14.1 15 21.5 3.6 3.8 7.9 9.2 9.5 12 11.4 20.2 28 34.9 44.5 39.6 2.5.7 9.3 1.3 15.3 1.3 13.9.1 11.2-3.1 31.1 37.6 4.6 9.6 11.2 23.6 14.6 31 6.5 14.2 19.5 39.7 26.3 51.5 5.3 9.2 8.4 12.5 11.7 12.5 3.4 0 11.7-5.3 13.1-8.3.6-1.4 2-2.4 3.6-2.5 3.6-.3 32.5-11.9 46.3-18.5 27.6-13.3 38.3-24.1 59-59.1 8.8-14.8 14-20.4 23.1-24.6 7.2-3.3 7.5-3.3 27-4.1 11.5-.5 22.6-1.5 26.5-2.4 15.1-3.5 31.7-16.3 55.8-43 13.2-14.6 15.2-20.1 9.2-24-2.2-1.5-3.4-1.3-19.7 3.9-29.4 9.2-41.3 10.8-81.9 11.1-24.9.1-31.5.5-36.2 1.8-13.8 4-20.9 9.7-27.3 22-9.1 17.4-25.1 36.4-48.6 57.7l-7.6 6.9 3.9-13.2c2.1-7.3 4.8-16.6 5.9-20.7 2.4-9.2 7.5-38.7 8.4-49.3.4-4.2.9-7.7 1.1-7.7.1 0 1.5.5 3.1 1.1 4.5 1.7 16.1 1.2 23.3-1 19.6-6.2 34.6-28.4 40.6-60.1 1.4-7.4 2.5-10.5 5.1-14.1 7.9-11.1 13-27.9 8.8-29.5-1.3-.6-3.3.9-8.1 6-3.5 3.7-6.7 7.9-7 9.4-1.3 5.4-3.3 8.2-5.9 8.2-3.3 0-3.3-3.1.1-11.3 5.3-13 8.4-24 8.4-30.2 0-6.7.8-8.3 7.5-15.5 6.4-6.8 9.1-11.8 7.7-14.1-.7-1-1.2-2.6-1.2-3.4 0-2.4-4.3-1.8-8.7 1.4-2.1 1.5-6 5.3-8.6 8.4-4.1 4.8-5.3 5.6-9 5.9-2.3.3-4.3.4-4.5.3-.1-.1 1.6-2.4 3.8-5.1 9.1-10.8 17.7-34 18.5-49.7.4-6.6.9-8.4 3.5-12.2 4.1-5.9 7-12.4 7-15.7.1-10.6-8.6-6.4-19.7 9.4-4.2 6-6 7.8-7.8 7.8h-2.4l2.9-6.8c5.2-12.2 10-36.8 10-51.2 0-4.4.6-7.1 2.5-10.6 1.4-2.6 2.5-5.6 2.5-6.8 0-1.2.7-3.4 1.5-5 1.6-3.1 1.2-6.6-.8-6.6-3.7.1-5.6 1.7-8.6 7.1-2.8 5.1-3.6 5.9-6.2 5.9H394v-10c0-5.8-.6-11.7-1.4-14.2-.8-2.4-1.7-7-2-10.3-.9-8-5.3-25.4-7.3-28.4-1.2-1.8-1.3-2.9-.4-4.7.6-1.3 1.5-5.4 2.1-9 1.3-7.9.1-13.4-3.6-16.3-3.3-2.6-6-1.4-8 3.4-1.9 4.7-2.8 16.3-1.6 20.8.9 3.4.8 3.9-1.1 5.1-1.2.7-6.2 3.9-11 7-7.5 4.8-8.8 5.4-9.4 3.8-3.5-10.4-11.3-21.5-20.6-29.3-7.7-6.4-19-14-26.6-17.6-5.3-2.6-6-3.3-8.5-8.9-4.2-9.5-11.3-15.1-15.8-12.3zm33.6 50.8c11.8 9.5 17.6 19.7 17.6 30.8 0 6.4-2.9 13.7-6.2 15.4-5.7 3.1-16.8-5.2-22.4-16.7-2.8-5.7-2.9-6.5-2.9-20.4 0-8 .3-15.3.8-16.4.7-1.7.8-1.7 3.5-.1 1.5 1 5.8 4.3 9.6 7.4zm59.1 36.1c1 4.4 1.7 11.8 1.7 18 .1 8.8-.3 11.4-2.1 15.5-3.9 8.8-9.8 13.5-17 13.5-3.3 0-4.4-.5-5.8-2.8-.9-1.5-3.3-4.6-5.2-7-3.3-4.2-3.4-4.3-2.8-11.9.5-6.6 1-8.3 4.3-13 5.7-8.3 22.6-22.4 24.5-20.5.4.4 1.5 4.1 2.4 8.2zm-66.7 29.2c12.4 6.7 16.4 10.5 18.4 17.6 1.4 4.7 3 7.2 7.4 11.8 5.3 5.6 5.5 6 4.2 8.4-8.2 15-35.6 4-47.3-19.2-2.1-4-4.8-9.1-6.1-11.3-1.2-2.2-2.3-5.4-2.3-7.2l-.1-3.2 6.8-.4c3.7-.2 7.7-.4 9-.5 1.3-.1 5.8 1.7 10 4zm-173.6 20.5c11.1 12.5 14.9 20.5 15.6 32.5.4 7.6.1 9.3-1.8 13.3-3.1 6.3-7.2 8.4-13.1 6.5-4.8-1.6-8.4-6.5-12-16-3-8-2.3-19.3 2.1-32.3 1.8-5.4 3.6-9.6 4-9.5.4.2 2.7 2.6 5.2 5.5zm252.7 19.5c-2.8 28.5-16.3 47.3-30.7 43-6.3-1.9-7.7-4.2-7.7-13.1 0-13.5 6.5-23.6 19.5-30.1 4.5-2.3 16.6-6.8 18.5-6.9.7-.1.9 2.3.4 7.1zM198 203.5c-1.4 9.7-3.6 14.9-8.6 20.4-13.7 15.2-32.1 12.1-30.1-5 1.6-13.3 13-24.3 33.7-32.4l5.5-2.1.3 5.5c.2 3.1-.2 9.2-.8 13.6zm103 1.5c4.6 1.2 11.7 3.6 15.7 5.6 6.3 3 7.5 4 9.1 7.7 1 2.3 3.6 6 5.7 8.2 4.4 4.5 5 8.5 2.1 12.9-8.6 13.3-30.4 5.2-39.6-14.7-2.9-6.2-6-16.5-6-19.9 0-2.3 2.3-2.3 13 .2zm-184.4 20c10.6 3.6 16.1 6.7 22.2 12.9 12.6 12.6 15.4 22.9 7.9 28.5-3.9 2.9-9.8 2.6-16.7-.9-6.4-3.3-17.7-13.8-22.1-20.6-3.4-5.3-9.9-20.2-9.9-22.6 0-2.2 7.5-1.1 18.6 2.7zm273.4 8.4c0 3.4-5.4 19.6-8.6 25.6-7.1 13.6-20.6 22.2-28.3 18-1-.5-3.3-3.2-5-5.9-3-4.7-3.2-5.2-2.1-9.3 4.1-14.9 13.1-23.1 31-27.9 8.1-2.2 13-2.4 13-.5zm-181 13.3c0 7.1-3.2 22.7-5.6 27.8-6.7 14.1-27.1 20.3-33.5 10.2-2.6-4.1-2.2-14.3.9-20.3 2.2-4.4 9.4-11.4 11.6-11.4.8 0 3.8-1.6 6.7-3.6 5.1-3.4 15.8-8.2 18.7-8.4.8 0 1.2 1.8 1.2 5.7zm95 15.3c2 1 6.1 2.6 9.3 3.5 6.7 1.9 11 5.3 13.7 10.6 1.1 2.1 3.4 5.5 5.2 7.5 2.4 2.8 3.2 4.7 3.6 8.7.4 4.9.2 5.5-3.9 10.4-2.3 2.9-5.1 5.5-6.2 5.9-5.8 1.8-14.4-3.6-20.9-13.3-4.4-6.4-8.4-18.7-9.6-29.1l-.8-7.3 3 .7c1.7.3 4.7 1.4 6.6 2.4zm-162.8 31c10.9 3.4 20.4 11.7 23 20.3 1 3.3.9 4.1-.8 6.4-7 9.4-17.4 9.3-30.7 0-7.5-5.3-15.6-16.5-19.8-27.4l-1-2.6 11.3.6c7 .4 13.8 1.4 18 2.7zm81.8 9.7c0 6-.4 13.4-1 16.6-3.4 20.8-19.6 33.2-30 22.9-3.7-3.7-4.5-10-2.5-18.7 2.3-10 6-15.7 14.3-21.6 5.6-4 16.2-9.8 18-9.9.9 0 1.2 2.8 1.2 10.7zm165.7 3.9c-1.1 16.1-4.8 21.8-23.2 35.3-3.3 2.5-9 7.5-12.7 11.3-7.7 7.8-11.1 8.9-10.7 3.5.1-1.7-.2-4.1-.7-5.2-1.3-3-1-23.5.4-27.5.6-1.9 2.6-4.4 4.2-5.5 1.7-1.1 4.5-4.3 6.3-7 1.7-2.8 3.8-5.6 4.7-6.2 3.9-3.2 20.6-8 28.4-8.2l3.9-.1-.6 9.6zm-88.5 20.6c4.3 1.6 10.5 5 13.8 7.4 4.9 3.8 6.6 5.9 10.1 12.7l4.1 8.2-.6 8.8c-.9 11.2-1.1 11.7-5.1 11.7-8.4 0-22.7-11.5-28.4-22.9-3.3-6.5-6.3-16.8-7.5-25.4l-.6-4.9 3.3.7c1.7.4 6.7 2.1 10.9 3.7zm-60.8 27c1.1 9.4.6 23.2-.9 29.3-2.9 11-10.2 19.5-18.2 21.1-2.6.5-3.9.1-7.2-2.5-3.3-2.6-4.1-4-4.7-7.9-.8-5.4.9-16.9 3.3-21.9 2.5-5.2 10.9-14 18.2-18.9 3.6-2.4 7.1-4.4 7.7-4.4.6 0 1.4 2.4 1.8 5.2zm-71.2-1.3c16.1 5.1 25.8 20.3 17.5 27.8-6.5 6-15.6 6.8-25.2 2.3-7.1-3.4-16.2-13-21.2-22.7-2.4-4.4-4.3-8.3-4.3-8.6 0-2.5 24.1-1.6 33.2 1.2zm219.8 7.9c0 3.1-3.8 15.3-6.8 21.6-6.5 13.8-17.1 20.9-28.8 19.1-4.9-.7-11.4-5.5-11.4-8.4 0-1 2.1-3.8 4.8-6.2 2.6-2.4 9.8-9.2 15.9-15 9.8-9.3 11.9-10.8 16-11.7 7.7-1.6 10.3-1.4 10.3.6zm-125.5 47c1.2 5.3 1.6 10.3 1.3 15.7-.8 14.3-9.3 28.1-21.6 35-5.7 3.2-9.8 3.3-10.5.2-.3-1.2-1.3-5.1-2.2-8.7-3.7-14.3 0-25.9 11.4-36.1 6.2-5.5 17.7-13.9 19.2-13.9.3 0 1.4 3.5 2.4 7.8zm-78.5 1.3c6.2 1.3 16.3 7.9 19.6 12.8 5.4 8.2 3.5 18.4-3.8 20.8-8.6 2.8-22.3-2.6-32-12.5-7-7.1-15.5-18.9-14.4-19.9 2.1-2.1 22.7-2.9 30.6-1.2zm320 27.3c0 1-13 10.1-18 12.6-8.9 4.5-12.4 5.1-34.5 6-28.2 1.2-36.9 3.7-47.8 13.8-6.6 6.3-11.4 13.4-21.4 32.5-9.1 17.2-13.4 23.7-20.8 30.7l-4.6 4.5-3.1-3.8c-3.6-4.4-7.5-6.7-11.6-6.7-6.2 0-6.9 4.9-1.6 12.3 3.4 4.8 3.5 5.1 1.8 6.4-2.5 1.8-3.6 1.6-6.3-1.2-3.1-3.3-6.8-4.2-10-2.4-2.6 1.5-2.8 2.7-1.9 9.7.3 2.1-.6 2.7-8 5.4-4.6 1.7-8.5 2.8-8.8 2.5-.3-.3.2-4.5 1.2-9.4l1.7-8.8 18.5-18c21.1-20.5 35.4-35.9 48.3-51.9 5-6.1 11.3-14 14.1-17.5 4.1-5 6.5-7 11.7-9.5 7.4-3.5 8.4-3.5 58.6-2.6 22.4.4 23.2.3 31.5-2.2 8.7-2.6 11-3.1 11-2.4z"/>
    </g>
  </symbol>
  <symbol viewBox="0 0 624 624" id="allergens-celery">
    <g fill="currentColor">
      <path d="M211.5 59.9c-1.1.5-4.2 3.2-6.9 6.1-4.8 5.2-4.9 5.2-8.5 4.1-6-1.8-17.3-2.4-21.6-1.2-2.2.6-9.2 4-15.5 7.7-20.5 11.7-27.7 15.2-39.7 19.4-16.5 5.7-22.8 10.2-28.1 20.4-2.3 4.4-2.7 6.3-2.7 13.9v8.7l-7.5 7.8c-4.7 4.8-8.9 10.4-11.3 15-4 7.5-8 22-9.2 32.7l-.6 6.1-6.5 2.3c-8.9 3.2-10.5 5.6-11.7 18.3l-1 9.9 2.9 3c1.6 1.6 8.9 6 16.2 9.7l13.4 6.6-.6 4.6c-2.1 13.8-2 14.7.8 17.3 2.5 2.3 11.9 5.7 16.2 5.7 1 0 4.1 1.1 6.7 2.4 3.6 1.8 5.9 2.2 9.1 1.9 7-.8 10.1 3.5 7.6 10.3-.9 2.2-.7 3.3 1.2 6 2 2.8 3 3.4 7.7 4 3 .4 8.6.4 12.6.1l7.2-.5.7 6.6c.3 3.7.6 8.3.6 10.3 0 4.8 3.1 7.5 9.5 8.4 11.9 1.6 12.1 1.7 16.9 11.4 5 9.9 7.5 11.8 14.1 10.5 6.1-1.1 10.3-5.6 19.2-20.2l1.4-2.3 3.3 3.6c1.9 1.9 4.7 4 6.4 4.6l3 1-1.4 4.5c-2.1 7 1.5 11.6 9 11.6 4.3.1 16.9-3.4 22.1-5.9 9.8-4.8 17.5-12.8 17.5-18.3 0-7.4-11.6-10.1-18.6-4.4l-3.6 2.9-3.6-3c-2-1.6-7.7-6.9-12.6-11.7-10.3-9.8-18.5-14.4-23.9-13.4-5.9 1.1-9.7 4.3-12.4 10.4-1.3 3.1-2.6 5.9-2.8 6.1-.2.2-1.7-.6-3.3-1.8-1.7-1.2-3.6-2.1-4.4-2.1-2.9 0-7.6-4-9.6-8.2-1.2-2.4-2.6-7.9-3.2-12.3-.9-6.6-1.5-8.4-3.7-10.4-3.5-3.1-9.2-2.6-19 1.7-3.9 1.8-7.7 3.2-8.3 3.2-.6 0 .2-1.7 1.9-3.7 1.8-2.1 3.1-4.9 3.1-6.4 0-3.9-4.8-7.6-10.8-8.4-8.6-1.1-15.6-2.7-24.5-5.3-9.8-2.9-9.7-2.7-7.5-13.2 1.6-8 .7-10.5-5-13.4-2.6-1.3-7.2-3.1-10.2-4.1-7.3-2.4-12.6-5.8-14.4-9.4l-1.5-2.9 5.1-1.7c10.2-3.3 12.8-6.7 12.8-16.7 0-8.6 4.2-25.3 8.4-33.5 4.3-8.2 7.3-11.8 14.7-17.1 7.8-5.6 8.7-8.3 5.6-15.8-2.5-5.8-2.5-5.9-.6-9.4 3.8-7.3 4.9-8 17-11.1 14.4-3.8 39.2-15.7 46.6-22.3l5-4.5 4.4 3c3.6 2.4 5.4 2.9 10.4 2.9 8.3 0 17.3-4.3 21.1-9.9 3-4.6 2.5-4.5 9.4-3 7.6 1.6 8.6 3.7 6.5 13.4-1.6 7-1.6 7.7-.1 10.1 2.4 3.6 6.1 4.7 13.3 4 5.8-.6 6.3-.5 7.4 1.6 4.7 9.3 13.8 23.2 15.9 24.3 2.5 1.3 2.6 1.8 3.8 16.3.6 8.2 1.6 16.2 2.2 17.8.6 1.6 4.1 5.8 7.9 9.4l6.8 6.5 2.7 12.5c3.6 16.9 4.8 31.9 3.6 45-1 10.4-1.3 12.3-4.6 23.2-2.1 7.1-1.1 10.2 4.2 12.4 8.2 3.4 14.4-.9 20.2-14.2 6.3-14.1 6.6-17.8 3.6-35.7-1.4-8.4-2.9-22-3.4-30.4-.5-8.6-1.5-16.6-2.3-18.5-2-4.8-6.3-9.5-11.3-12.4-2.4-1.4-4.4-2.7-4.5-2.7-.3-.8-3.1-20-3.8-26.3-1-9.1-2.8-13.2-9.5-21.8-2.5-3.3-4.6-6.4-4.6-6.9 0-1.8-9.4-16.9-11.4-18.3-1.1-.8-4.2-1.4-6.8-1.4H257v-4.3c0-15.6-9.6-22.6-32-23.3-6.3-.2-12.4 0-13.5.5z"/>
      <path d="M164.3 134.1c-5.5 3.5-8.1 13.3-6.3 24.3.6 3.8.9 7 .7 7.2-.9 1-8.9-6-12.7-10.9-3-4.1-4.3-6.9-5-11.1-1-6.4-1.6-7.6-3.5-7.6-2.8 0-4.7 8.1-3.3 14.4 1.5 7 3.8 11.4 9.8 17.9 2.7 3 5 5.7 5 5.9 0 .3-2.7.8-6.1 1.2-7.4.7-14.3 3.6-15.9 6.7-2 3.5.9 4.9 10.9 5.1 4.7.1 12.8.2 17.9.4l9.3.2 21.7 18c11.9 9.9 23.2 19.6 25.1 21.6l3.4 3.5-7.4-2.9c-7.8-3-19.3-5-28.6-5-5.3 0-5.6-.1-10-5-5.8-6.5-10.8-9-19.2-9.7-7.3-.6-10.1.7-10.1 4.8 0 2.1 2 3.2 8.5 4.8 2.2.6 4.6 2 5.3 3.1 1.1 1.8 1 2-1.2 2-1.4 0-5.5-.7-9.1-1.5-7.1-1.7-18.4-1.7-18.7 0-.5 2.8 17.3 11 29.5 13.7 4.6.9 4.7 1.1 3.2 2.8-1.8 2-4.9 3.4-11.1 4.9-2.2.6-4.9 2-6 3.2-1.8 2-1.8 2.1-.1 3.4 4.7 3.4 18.7 2.6 25.5-1.5 1.8-1.1 4.7-4 6.4-6.5 3.1-4.4 3.3-4.5 8.9-4.5 6.8 0 21.8 3.7 32 7.8 21.5 8.8 24.5 10.3 26.9 13 1.4 1.6 5.9 6.9 10 11.8s8.4 9.9 9.5 11.2c2.2 2.6 7.6 6.2 9.4 6.2.6 0 1.1-.6 1.1-1.3 0-2.4-25-41.6-30.1-47.3-1.1-1.1-1.9-3.5-1.9-5.5 0-1.9-1-8.4-2.1-14.4-2.3-13-5.5-31.5-6.2-36.6-.5-3.1-.2-3.8 2-5 1.3-.7 4.3-4.4 6.5-8.2 2.1-3.7 5.9-9 8.3-11.7 7.7-8.7 8.1-11 1.6-11-2.9 0-5.5 1.1-10.7 4.6-3.8 2.5-7.3 5.1-7.7 5.8-.5.6-.6-.2-.3-1.9 4-21.4 3.1-24.5-4.5-16.6-4.1 4.4-7.5 12.4-8.7 20.4-.4 2.8-1.2 5.2-1.8 5.4-.6.2-3.5-1.6-6.4-3.9-13.2-10.8-17.1-10-10.9 2.4 2.8 5.5 7.7 10.7 13.7 14.5 4.4 2.9 5.2 3.8 5.2 6.5 0 4.4 4.7 26.7 6.5 31.2.9 2.1 1.4 4.1 1.1 4.4-.4.3-3.9-2.6-7.9-6.4-8.5-8.2-21.9-19.6-33.4-28.3-7.6-5.7-8.3-6.6-8.3-9.7 0-1.9-1.1-8.2-2.5-14-3.1-13.3-3.1-16.6.1-22.1 1.4-2.4 2.2-4.8 1.9-5.3-1-1.7-5.8-1.1-9.2 1.1z"/>
      <path d="M263.2 197.5c-2.9 3.7-4.6 11.8-4.6 22 .1 10.9 1.3 17.3 6.5 33 4.8 14.5 8.6 22 11.3 22 4.5 0 4.1-11.3-1.4-37.6-1.7-7.9-3.3-19.1-3.6-24.9-.3-5.8-1-12-1.6-13.8-1.2-3.9-3.8-4.2-6.6-.7zM182.7 262.6c-8.8 2.8-7.2 6.9 3.1 7.9 3.7.4 8.5 1.1 10.7 1.7 3.8.9 21.3 9.2 49.1 23 12.8 6.5 16.4 7 16.4 2.4 0-5.9-14.3-16.8-36.8-27.9l-16.6-8.2-10.5-.2c-7.3-.2-12.1.2-15.4 1.3zM333 271.7c-3 1.2-6 4.7-6 7.1 0 2.9 2.5 5.2 18.4 16.7 14.5 10.5 32.7 25.1 42.1 33.6 11.3 10.2 40.5 39.5 40.5 40.6 0 .6-1.4 1.6-3 2.3-4 1.6-6 4.6-6 8.7 0 4.5 2.4 5.6 9.7 4.4 3.2-.5 7-1.2 8.5-1.6 2-.5 2.9-.2 3.7 1.3.9 1.6.4 2.3-3.5 5.1-4 2.8-4.5 3.5-4.2 6.4.5 5.4 4.7 6.3 15.8 3.3 2.3-.6 4 .9 19.1 18.6 29.3 34.2 40.9 49.8 49.3 66.5 9 17.9 11.3 36.4 6.3 49.6-4.7 12.2-13.1 21.6-23.5 26.5-5 2.4-6.9 2.7-15.7 2.6-7.7 0-11.5-.5-16.5-2.3-27.7-9.7-54.1-31.4-94.5-77.6-3.9-4.4-7.3-8.2-7.6-8.5-.3-.3-6.8-7.5-14.4-16-7.7-8.5-16.1-18-18.8-20.9-2.7-3-7.3-8.7-10.2-12.5-2.9-3.9-8.1-10.3-11.6-14.2-6.9-7.7-19.6-25.4-29.5-41.1-4.9-7.8-7-10.2-10.5-12.1-7.6-4.1-17.9-1.6-17.9 4.3 0 3.3 8.9 17.8 23.4 38 8.3 11.5 12.2 16.4 22.1 27.5 3.3 3.7 8.3 9.8 11 13.4 5.9 7.9 16.7 20.7 24.4 29.1 3.1 3.3 7.6 8.3 10 11 29.2 32.9 44.4 49.2 51.3 55.2 25.7 22.2 53 38.8 76 46.3 8.1 2.6 17.9 2.1 27.3-1.5 3.3-1.3 7.1-2.6 8.5-3 1.4-.4 3.4-1.5 4.5-2.5 1.1-.9 3.7-2.7 5.7-3.9 7.1-4.3 20.9-21.6 26-32.8 2.6-5.8 3.2-8.7 4-19.5.9-11.9.8-13.3-1.2-20-2.7-8.9-9.4-23.1-15.1-31.8-4.8-7.3-8-11.6-26-34.1-6.8-8.6-18-22.9-24.9-32-21.9-28.7-47.2-58.9-51.2-61-1.7-.9-8-7-14.2-13.6-14.7-16-23.8-24.1-38.5-34.3-6.7-4.7-16.3-11.4-21.4-15-8.2-5.8-9.7-6.4-14.7-6.7-3-.1-6.2 0-7 .4z"/>
      <path d="M314 312.8c0 4.8 16.9 25.1 40.5 48.7 8.8 8.8 17.3 17.8 18.7 20 5.7 8.4 26.8 31.9 48.2 53.5 12.2 12.4 25.5 26.3 29.6 31 4.1 4.7 7.7 8.7 8 9 3.3 3 14.2 16.9 20 25.4 7.6 11.2 9.8 12.4 8.5 4.7-1.5-9.1-13.8-30.3-27.1-46.6-9.1-11.2-8.9-11-33.2-36.7-11-11.7-24.9-27.2-30.8-34.3-11.5-13.8-31.6-34.5-42.4-43.5-3.5-3-13.1-11.7-21.3-19.3-14.2-13.1-18.7-16-18.7-11.9zM291 341.3c0 2.6 5.8 14.1 9.9 19.7 4.7 6.5 19.2 23 20.1 23 .9 0 12.3 11.1 20.6 20.1 2.3 2.4 7.2 7.4 11 11 3.8 3.6 11.8 12.6 17.8 20 22.9 28.1 30 36.1 42.1 47.7 14.5 14 26.6 22.3 46 32 16.3 8.1 18.5 8.9 18.5 6.9 0-2.3-7.9-9-20.6-17.3-9.6-6.3-15-10.9-27.9-23.8-8.9-8.9-20.4-21.5-25.7-28.1-30.7-38.3-36.6-44.9-49.6-54.6-8.4-6.4-34.6-32-54.2-53.2-5.7-6.1-8-7.1-8-3.4z"/>
    </g>
  </symbol>
  <symbol viewBox="0 0 624 624" id="allergens-crustacens">
    <g fill="currentColor">
      <path d="M265 70.5c-11.7 2.4-27.1 8.6-31 12.5-2.7 2.7-2.5 7.2.3 9.7 1.2 1.2 10.5 6.2 20.5 11.3 22.6 11.2 29.4 15.5 29 18.4-.3 2.1-.7 2.1-18.8 1.8-10.2-.2-23.2-1-29-1.9-13.9-2-16.6-1.9-20.6 1.2-4.2 3.2-4.3 5.6-.8 13.3 7.3 16.1 15.8 27 25.4 32.7 15.8 9.2 29.1 13.3 46.5 14.1 21.4 1.1 50.8-6 65.3-15.7l4.3-2.9 5.4 11.2c4.6 9.6 17.8 46.8 20 56.2l.6 2.9-4.7-.6c-4.6-.5-18.9.5-27.1 1.8l-4.2.7-1-3.9c-1.7-6.4-5.1-10.6-11.1-13.6-5.2-2.7-6.1-2.8-15-2.4-19.4.9-29.5 8.9-30.8 24.2-.3 4.9 0 7.3 2 12.2l2.5 6.1-6.5 3.7c-3.5 2.1-10.7 6.7-15.9 10.1-5.2 3.5-9.8 6.4-10.2 6.4-.4 0-1.8-1.2-3.2-2.6-9.5-10.2-26.7-9-39.5 2.8-5.8 5.3-8.8 9.9-10.8 16.8-2.9 9.6-1.5 16.1 4.6 22.2 3.7 3.7 4 4.3 2.7 6.2-.7 1.2-3.4 6.1-6 11l-4.7 8.9-14.4-14.4c-7.9-7.9-19-19.9-24.6-26.6L154 292.2l6.3-4.5c7.9-5.6 20.5-18.5 26.4-26.8 18.1-25.5 23.1-56.8 13.1-81.7-4.6-11.3-16.8-26.9-22.5-28.6-2.9-.9-8.8 1.6-10.7 4.6-.8 1.2-2.4 6.4-3.5 11.4-3 14-11.8 33.5-20 44.2-1.7 2.3-1.7 2.3-3.5-7.6-2.5-14.4-5.6-38.9-5.6-44.8 0-6.8-1.7-8.9-6.9-8.7-5 .2-10.8 4.2-19.2 13-14.4 15.2-24.3 33.8-28.4 53.2-4.4 20.5 10.2 55 28.6 68.1 10.5 7.4 16.6 9.8 30.7 11.9 4.3.6 4.4.6 7.1 7.8 7.7 19.8 24.6 38.3 43.3 47.3 4.2 2 8.5 3.9 9.6 4.2 1.7.5 1.8 1 1 6.4-1.2 8.3.6 22.4 3.9 31 .5 1.5-.4 1.6-10.8 1-16.8-1-27.7-2.4-43.8-5.8-13.8-2.9-19.3-4.9-23.6-8.8-1.1-1-3.8-2.7-6-3.8-5-2.5-13.5-9.2-22.8-17.7-3.9-3.6-7.4-6.5-7.8-6.5-3.6 0-3.6 9.4.1 17.7 3.6 8.1 6.3 11.3 13 15.3 10.5 6.3 40.6 18.9 48.5 20.2 11.1 1.9 38.3 1.4 48.3-1l8.3-1.9 2.8 4.1c1.6 2.3 5.2 6.6 8 9.5 3.8 4.2 4.8 5.8 4 6.8-2.6 3-29.8 10-52.4 13.4-4.4.6-8.9 1.7-10 2.3-1.1.7-4.6 1.8-7.7 2.6-7 1.6-9.3 3.8-8.3 7.7.3 1.5 1.1 3.4 1.7 4 2.2 2.7 26.7 1 40.3-2.8 3.8-1 7.9-1.9 9-1.9 1.2 0 5.7-1.7 10-3.9 4.4-2.1 9.8-4.4 12-5.1 4.3-1.4 11.7-4.8 15.1-7 1.8-1.1 2.7-1 6.5.8 2.4 1.2 6.6 2.6 9.2 3.2 2.6.5 5.5 1.5 6.5 2 .9.5 3.9 1.5 6.6 2.2l4.9 1.3-7.9 6.1c-11.4 8.8-39.7 27.2-41.9 27.3-1.5.1-11.2 7.4-16.2 12.1-2.3 2.2-4.6 4-5.1 4s-1.4 1.2-2.1 2.7c-1 2.1-.9 2.9.2 4.1 1.3 1.2 2.2 1.2 6.8-.3 3-1 6.8-2.5 8.4-3.5 1.7-1 10.2-5.7 19-10.5 26.9-14.6 37.7-22.7 49-36.7 2.9-3.6 3.1-3.6 8.6-3.1l5.7.5-4.3 6.2c-11.5 16.5-16.6 35.2-14.5 52.3 1.3 9.9 5.3 22 8.9 27C286 536.9 296 546 299 546c.5 0 1-1.7 1-3.8 0-2.6-1.2-5.6-4-10.2-2.2-3.6-5.2-10.1-6.7-14.5-3.7-11-3.9-27.1-.5-39 2.7-9.5 12.9-33.5 14.8-35.1.8-.6 4.7-1.4 8.7-1.8 24.5-2.2 58.9-14.4 78.4-27.8 15-10.3 33.7-31.7 39.9-45.7 1.7-3.9 2-4.1 6.3-4.1 7.6 0 22 2.1 31.7 4.5 18.5 4.7 33.6 12.8 46.2 25 9.9 9.5 23 19.5 24.7 18.8.8-.3 1.5-1.4 1.5-2.5 0-3.1-10-18.1-18.9-28.3-12.7-14.7-24.5-21.9-46.1-27.8-5.9-1.6-10.7-2-22.7-2.1-16.8-.1-16.3.1-14-6.4 1.1-2.8 2.4-3.8 8.9-6.6 12.1-5.3 34.3-17.4 46.8-25.7 16.8-11.2 21.3-15.5 26.6-26 4.4-9 5.4-13.5 3.2-15.7-2.4-2.4-5-1.1-13.6 6.9-14.6 13.7-22.3 19.4-45.5 34.3l-22.2 14.3-.6-12.1-.6-12.1 6.6-6c15.7-14.2 21.9-20.8 31.6-33.5 12.5-16.5 20-27.8 21.6-32.8.7-2 1.8-4.6 2.5-5.7 1-1.6 1-2.3-.1-3.9-2.1-2.7-5-1.5-13.8 5.6-7.9 6.5-18.3 19-39.5 47.5-5.8 7.9-10.9 14.3-11.3 14.3-.4 0-1-1.5-1.4-3.3-.6-3-4.5-12.9-6.6-16.9-.5-1-.9-2.7-.9-3.7 0-2.5 13.6-17.7 21.2-23.6 3.1-2.5 7.2-6.7 9.2-9.4 4-5.5 13.5-24.1 19.1-37.6 4.5-10.7 5.8-21.1 3.1-23.4-1.4-1.1-2.1-1.2-4-.1-2.6 1.3-4 4.2-11.7 23.5-2.9 7.1-6.4 14.8-7.9 17-1.5 2.2-4.9 7.4-7.6 11.5-3.5 5.3-6.5 8.5-10.4 11.1-3 2-8.5 6.9-12.2 10.8-5.9 6.2-7.2 7.1-10.2 7.1-2.8 0-4-.7-5.7-2.9-2.2-3-10.6-8-17-10l-3.5-1.1.4-10.8c.3-9.5 0-12.1-2.7-22.7-4.2-16.4-11-29.8-20-39.6l-6.8-7.4-.7-11.3c-.8-10.9-1.3-13.4-6.9-28.7-4.2-11.3-27.9-34.3-43.7-42.5-9.1-4.7-33.5-6.4-48-3.5zm36.1 17.8c16.4 8.1 37.1 29.9 42.1 44.2 3.3 9.6 2.1 16.5-3.9 22.7-9.2 9.5-39.7 15.3-59.2 11.4-11.2-2.3-19.3-5.7-26.6-11.1-6.4-4.7-14.3-13.7-12.7-14.3.6-.2 3.7.4 6.9 1.2 15 3.9 29.1 3.9 51.7.1 11.3-2 13.7-3.1 15.9-7.7 1.7-3.4 1.7-3.9.2-7.4-.9-2.2-5.9-8.1-11.8-13.9-9.8-9.7-10.9-10.5-26.2-18.2l-16-8.1 4.5-1.1c2.5-.5 10.2-.9 17.1-.7 11.4.2 13.2.5 18 2.9zM117 189c1.3 12.4 4.2 27.1 7.6 39.5 4.9 17.2 9.1 16.8 27-2.5 13.7-14.7 16.9-19.6 21.5-33.1 2.1-6.1 4-11.3 4.2-11.6.9-.8 6.5 14.2 7.7 20.5 3 15-.3 33.7-8.2 47-4.2 7.2-15.9 19-22.3 22.8-5.3 3.1-14.1 5.3-18.6 4.6-2.5-.4-2.7-.7-2.2-3.8.7-4-1.8-8.4-4.7-8.4-1 0-3 1.5-4.4 3.2l-2.5 3.3-3.5-3.4-3.5-3.4 3-5.2c6.2-11 1.4-16.3-7.6-8.4l-3.4 3-3-6.4c-3.5-7.3-5.7-15.2-6.7-23.5-.8-7.3 1.4-15.8 7-27.7 4-8.3 10.3-18.2 11.1-17.3.2.2.9 5 1.5 10.8zm210 48.9c5.2 1.4 3.4 3.6-6.7 7.9-5.4 2.2-10.5 4.4-11.4 4.7-1.9.7-5.4-5.7-4.5-8.1 1.4-3.6 15.6-6.4 22.6-4.5zm67.8 17.6c6.1 1.8 12 6.8 18.9 15.7 10.2 13.3 13.8 26.7 13.1 49.3-.4 12.5-.8 15-3.5 22.8-9.6 27.3-36.3 53.5-69.3 67.7-13.4 5.8-12.7 5.8-14.2.4-1.4-5.1-5.3-8.9-8-7.9-1.5.6-4.1 5.8-3.4 6.7.2.1.6 2.4.9 5l.6 4.6-5 1.1c-7.5 1.6-7.6 1.6-8.4-3.7-1-6.9-3-11-6.1-12.4-2.4-1.1-2.8-1-4.6 1.2-1.6 2-1.9 3.4-1.5 7.2.3 2.6 1.3 6 2.1 7.6l1.5 3-3.7.6c-2 .3-5.5.6-7.7.6h-4.1l-.1-9.1c-.1-7.5-.5-9.3-2-10.5-3.5-2.7-5.7-1.3-7.7 5-1.9 5.9-1.9 6.2.8 12.6.6 1.4-.3 1.5-6.1 1.2-3.7-.2-7.4-.5-8-.7-1-.3-1.3-3.5-1.3-11.5 0-9.1-.4-11.8-2-15-2.2-4.4-4.3-5.1-6-2.1-.5 1.1-1 7.4-1 14.1 0 14.2-.5 14.8-7.7 10.1-10.6-6.7-9.7-4.6-9-19.9.6-15-.1-18.5-3.6-18-3 .4-7.3 9.1-8.3 16.4l-.7 5.6-3.8-3.8c-7.3-7.1-10.1-17.4-8-28.9 4.7-25.1 35.3-58.5 83.3-90.6 21.5-14.4 38.2-21.9 56.8-25.4 9.7-1.9 29.4-1.3 36.8 1zm-153.8 35l2.7 2.6-7.2 6.9c-3.9 3.9-7.7 7-8.3 7-1.7 0-4.2-4.1-4.2-7 0-2.7 3.3-8.7 5.9-10.7 2.8-2.2 8.2-1.6 11.1 1.2z"/>
      <path d="M362.5 264.6c-4.2 2.2-6.5 4.4-6.5 6.4 0 2.5 2.6 3.2 7.2 2 4.5-1.3 8.9-.2 15 3.7 4.7 2.9 15.4 16.3 18.1 22.5 2.8 6.9 4.1 6.1 3.4-1.9-.8-8.1-3.8-14.7-10.6-22.8-8.5-10.1-18.9-14-26.6-9.9zM322 298.8c-5.5 2.8-7.4 5.7-4.8 7.3.7.5 4.7.6 8.8.3 7.1-.5 7.7-.4 12 2.5 5.4 3.7 20.7 16.9 26.7 23 2.4 2.4 4.6 4.2 4.8 3.9 1.5-1.5-7.8-18.4-15.5-28.1-8.8-11.2-20.8-14.5-32-8.9zM278.5 320.4c-4.2 4.5-5.7 10.3-4.5 18.5 1.1 7.8 4.7 15.3 9.8 20.7 4.5 4.7 19.7 13.3 25 14.1l3.4.6-4.8-4.6c-2.7-2.5-6.2-6.4-7.9-8.7-1.6-2.3-4.5-6-6.3-8.3-5.9-7.2-8.6-13.5-8.6-20.2 0-3.3.4-8.1.8-10.8.8-4.5.8-4.7-1.4-4.7-1.3 0-3.7 1.5-5.5 3.4z"/>
    </g>
  </symbol>

</svg>
